<svg width="15" height="16" viewBox="0 0 15 16" fill="none" xmlns="http://www.w3.org/2000/svg">
<path d="M14.9962 15.6344V15.6338H14.9999V10.1153C14.9999 7.41558 14.4246 5.33594 11.3002 5.33594C9.79826 5.33594 8.79033 6.16855 8.37884 6.95789H8.3354V5.58798H5.37305V15.6338H8.45767V10.6595C8.45767 9.34976 8.70344 8.08329 10.3091 8.08329C11.8911 8.08329 11.9147 9.57797 11.9147 10.7435V15.6344H14.9962Z" fill="#F7F7EE"/>
<path d="M0.223633 5.56055H3.35796V15.4113H0.223633V5.56055Z" fill="#F7F7EE"/>
<path d="M1.79104 0.634766C0.802303 0.634766 0 1.43333 0 2.41746C0 3.40159 0.802303 4.21685 1.79104 4.21685C2.77979 4.21685 3.58209 3.40159 3.58209 2.41746C3.58147 1.43333 2.77916 0.634766 1.79104 0.634766V0.634766Z" fill="#F7F7EE"/>
</svg>
