<svg width="17" height="15" viewBox="0 0 17 15" fill="none" xmlns="http://www.w3.org/2000/svg">
<path d="M17 1.8637C16.3678 2.14102 15.6942 2.32483 14.9919 2.41408C15.7144 1.9827 16.2658 1.30483 16.5251 0.487766C15.8514 0.889391 15.1077 1.17308 14.3151 1.33139C13.6754 0.650328 12.7638 0.228516 11.7693 0.228516C9.83981 0.228516 8.28644 1.79464 8.28644 3.71458C8.28644 3.99083 8.30981 4.25645 8.36719 4.50933C5.46975 4.36802 2.90594 2.97933 1.18362 0.863891C0.882937 1.38558 0.706563 1.9827 0.706563 2.62552C0.706563 3.83252 1.32812 4.90245 2.25463 5.52189C1.69469 5.51127 1.14538 5.3487 0.68 5.09264C0.68 5.10327 0.68 5.11708 0.68 5.13089C0.68 6.82452 1.88806 8.23127 3.47225 8.55533C3.18856 8.63289 2.87937 8.67008 2.5585 8.67008C2.33538 8.67008 2.11012 8.65733 1.89869 8.61058C2.35025 9.99077 3.63163 11.0055 5.15525 11.0384C3.9695 11.966 2.46394 12.5248 0.834063 12.5248C0.54825 12.5248 0.274125 12.5121 0 12.477C1.54381 13.4726 3.37344 14.041 5.3465 14.041C11.7597 14.041 15.266 8.72852 15.266 4.12364C15.266 3.96958 15.2607 3.82083 15.2533 3.67314C15.9449 3.18227 16.5261 2.5692 17 1.8637Z" fill="#F7F7EE"/>
</svg>
