<svg width="1920" height="548" viewBox="0 0 1920 548" fill="none" xmlns="http://www.w3.org/2000/svg">
<g opacity="0.3">
<path d="M685.673 547.002C676.202 547.002 666.983 546.555 658.124 545.664C639.543 543.792 622.378 539.951 607.102 534.245C590.684 528.114 576.284 519.76 564.299 509.416C540.212 488.624 528.161 463.725 516.506 439.644C514.216 434.916 511.849 430.027 509.445 425.283C493.045 392.949 472.255 364.627 445.892 338.697C393.303 286.972 319.344 242.828 232.009 211.039C131.006 174.276 22.4121 155.963 -73.7722 159.474C-130.304 161.539 -204.999 181.173 -238.382 214.704C-258.193 234.604 -259.791 256.688 -242.999 278.565L-243.332 278.657C-252.137 267.184 -255.973 255.682 -254.731 244.47C-253.591 234.186 -248.198 224.132 -238.697 214.589C-223.587 199.411 -198.668 185.959 -166.633 175.685C-137.032 166.193 -104.063 160.357 -73.7942 159.252C-23.4578 157.416 30.0772 161.491 85.3233 171.366C135.403 180.319 184.82 193.602 232.199 210.847C319.586 242.654 393.589 286.822 446.208 338.578C472.585 364.525 493.386 392.863 509.797 425.214C512.204 429.958 514.571 434.85 516.857 439.578C528.502 463.641 540.545 488.523 564.6 509.284C587.862 529.365 619.351 541.529 658.186 545.439C711.966 550.854 777.274 539.528 832.879 515.14C913.011 479.995 968.624 428.84 1022.41 379.371C1031.84 370.7 1041.58 361.734 1051.23 353.076C1076.29 330.594 1110.22 301.461 1150.55 275.507C1191.77 248.979 1233.65 229.488 1278.6 215.919C1306.12 207.613 1335.28 202.017 1365.27 199.288C1392.97 196.765 1422.3 196.609 1452.43 198.819C1504.11 202.612 1559.78 213.326 1622.64 231.571C1746.42 267.499 1870.05 311.108 1990.12 361.188C2104.25 408.788 2216.18 462.651 2322.8 521.275L2322.55 521.438C2101.53 399.912 1865.99 302.454 1622.48 231.769C1484.91 191.834 1375.69 186.859 1278.77 216.115C1180.17 245.877 1111.29 299.588 1051.54 353.197C1041.89 361.853 1032.14 370.819 1022.72 379.49C968.917 428.977 913.286 480.147 833.099 515.316C807.187 526.681 778.036 535.546 748.801 540.95C733.357 543.806 718.005 545.672 703.166 546.5C697.252 546.837 691.415 547.002 685.673 547.002Z" fill="#FFE492"/>
<path d="M694.934 534.672C670.781 534.672 648.408 531.91 628.414 526.457C606.118 520.377 586.878 510.955 571.226 498.456C569.841 497.348 568.466 496.204 567.14 495.05C543.309 474.349 530.723 449.773 518.555 426.005C516.093 421.202 513.55 416.233 510.971 411.412C495.607 382.707 477.108 357.406 454.409 334.07C451.613 331.197 448.719 328.318 445.799 325.513C392.436 274.233 317.877 230.648 230.182 199.471C128.45 163.335 19.5483 145.78 -76.4638 150.039C-132.586 152.555 -206.936 172.511 -240.462 205.784C-260.537 225.709 -262.809 247.836 -247.039 269.777L-247.376 269.865C-255.642 258.366 -259.038 246.841 -257.466 235.617C-256.023 225.308 -250.41 215.232 -240.777 205.67C-225.513 190.518 -200.667 177.05 -168.933 166.723C-139.602 157.178 -106.776 151.175 -76.4967 149.819C-26.2227 147.589 27.371 151.274 82.793 160.771C132.994 169.374 182.645 182.331 230.365 199.281C318.111 230.477 392.711 274.088 446.107 325.397C449.027 328.203 451.925 331.085 454.721 333.96C477.434 357.312 495.945 382.625 511.315 411.346C513.898 416.167 516.441 421.135 518.903 425.941C531.068 449.694 543.643 474.252 567.441 494.925C568.763 496.074 570.137 497.219 571.519 498.324C603.865 524.161 648.309 534.672 695.047 534.672C695.304 534.672 695.557 534.672 695.813 534.672C695.52 534.67 695.227 534.672 694.934 534.672ZM704.904 534.518C748.355 533.178 793.192 523.146 831.657 508.223C914.629 475.901 974.261 425.978 1031.93 377.701C1034.31 375.711 1036.68 373.725 1039.06 371.739C1044.27 367.381 1050.45 362.221 1056.76 357.019C1085.06 333.691 1119.32 306.549 1158.77 282.118C1200.74 256.122 1242.68 236.832 1286.97 223.142C1314.18 214.739 1342.94 208.82 1372.44 205.549C1399.78 202.517 1428.67 201.661 1458.3 203.002C1509.49 205.32 1564.53 214.107 1626.57 229.869C1687.06 245.212 1736.78 259.656 1783.05 275.323C1848.59 297.539 1911.02 323.136 1963.45 345.244C2085.34 396.791 2204.93 455.322 2318.91 519.214L2318.66 519.375C2204.69 455.492 2085.11 396.965 1963.24 345.424C1910.82 323.319 1848.4 297.726 1782.87 275.516C1736.62 259.854 1686.91 245.415 1626.43 230.076C1491.29 195.739 1383.47 193.597 1287.14 223.34C1187.15 254.242 1115.95 308.614 1057.06 357.151C1050.74 362.353 1044.57 367.511 1039.35 371.872C1036.98 373.855 1034.6 375.843 1032.23 377.833C974.539 426.126 914.885 476.066 831.855 508.412C811.267 516.399 789.359 522.743 766.738 527.267C745.681 531.474 724.924 533.906 704.904 534.518Z" fill="#FFE492"/>
<path d="M705.145 522.625C702.24 522.625 699.352 522.587 696.487 522.51C672.356 521.869 650.024 518.543 630.113 512.619C608.338 506.141 589.472 496.545 574.043 484.096C572.672 482.987 571.306 481.84 569.987 480.687C546.423 460.086 533.314 435.839 520.64 412.392C517.998 407.505 515.265 402.451 512.495 397.546C496.373 368.937 477.386 343.84 454.442 320.818C451.602 317.972 448.664 315.117 445.699 312.334C391.563 261.501 316.403 218.475 228.35 187.909C125.893 152.402 16.6827 135.601 -79.1608 140.609C-133.124 143.473 -207.259 162.29 -242.507 196.834C-262.871 216.791 -265.835 238.979 -251.08 260.996L-251.421 261.078C-259.152 249.543 -262.102 237.992 -260.196 226.748C-258.445 216.406 -252.597 206.304 -242.818 196.719C-227.392 181.603 -202.627 168.13 -171.197 157.755C-142.142 148.164 -109.466 141.998 -79.1938 140.391C-28.9783 137.769 24.674 141.063 80.2682 150.181C130.594 158.436 180.476 171.065 228.533 187.72C316.638 218.306 391.838 261.355 446.007 312.217C448.971 315.002 451.914 317.857 454.753 320.708C477.708 343.743 496.706 368.856 512.835 397.48C515.605 402.387 518.339 407.441 520.98 412.328C533.651 435.761 546.75 459.992 570.284 480.568C571.603 481.721 572.962 482.866 574.332 483.971C637.027 534.554 748.135 529.123 830.433 501.304C916.867 471.831 981.101 422.844 1043.22 375.471L1043.86 374.984C1049.87 370.392 1056.1 365.646 1062.29 360.96C1127.63 311.517 1199.45 260.706 1295.33 230.36C1322.25 221.859 1350.62 215.616 1379.63 211.805C1406.61 208.261 1435.07 206.705 1464.19 207.18C1514.97 208.008 1569.37 214.872 1630.51 228.163C1694.76 242.082 1743.12 254.877 1787.29 269.65C1850.23 290.741 1911.19 317.393 1964.98 340.908C2084.74 393.544 2202.51 452.84 2315.03 517.143L2314.77 517.302C2202.27 453.005 2084.51 393.716 1964.76 341.084C1910.98 317.573 1850.03 290.926 1787.11 269.841C1742.95 255.073 1694.62 242.283 1630.39 228.368C1497.86 199.557 1391.45 200.25 1295.5 230.552C1199.68 260.878 1127.89 311.667 1062.57 361.092C1056.38 365.778 1050.16 370.527 1044.14 375.117L1043.51 375.603C1012.55 399.21 980.541 423.621 945.974 445.425C907.128 469.929 869.392 488.268 830.609 501.492C790.033 515.206 745.834 522.625 705.145 522.625Z" fill="#FFE492"/>
<path d="M2310.89 515.226C2199.85 450.515 2083.91 390.464 1966.29 336.743C1961.31 334.484 1956.32 332.214 1951.31 329.938C1900.37 306.776 1847.69 282.825 1791.36 264.166C1736.71 246.115 1681.32 235.078 1634.35 226.662C1504.69 203.288 1399.69 206.817 1303.88 237.763C1205.54 269.626 1129.33 322.526 1068.1 365.034C1064.43 367.586 1060.76 370.141 1057.09 372.699C1054.37 374.588 1051.66 376.477 1048.94 378.363C1014.08 402.592 982.368 424.253 947.329 444.019C907.3 466.598 868.718 483.134 829.37 494.575C792.495 505.298 753.103 510.971 716.463 510.973C709.787 510.973 703.21 510.786 696.747 510.405C673.151 509.016 651.306 505.113 631.82 498.804C610.558 491.92 592.066 482.142 576.849 469.739C575.49 468.628 574.134 467.478 572.822 466.323C549.537 445.83 535.918 421.924 522.75 398.805C519.914 393.826 516.979 388.675 514.011 383.675C497.12 355.157 477.642 330.26 454.471 307.559C451.587 304.735 448.601 301.906 445.596 299.148C390.684 248.761 314.926 206.295 226.517 176.339C123.335 141.459 13.8208 125.417 -81.8542 131.167C-147.261 135.176 -214.144 158.479 -244.504 187.834C-265.187 207.834 -268.855 230.092 -255.118 252.202L-255.463 252.279C-262.655 240.702 -265.162 229.116 -262.912 217.843C-260.842 207.464 -254.752 197.329 -244.815 187.718C-229.229 172.645 -204.544 159.173 -173.429 148.761C-144.652 139.13 -112.145 132.803 -81.8908 130.949C-31.734 127.934 21.9732 130.837 77.7396 139.577C128.186 147.484 178.306 159.787 226.7 176.145C315.165 206.119 390.962 248.609 445.908 299.027C448.916 301.787 451.902 304.618 454.786 307.443C477.972 330.156 497.457 355.067 514.359 383.598C517.327 388.6 520.262 393.749 523.098 398.73C536.259 421.836 549.871 445.727 573.126 466.195C574.438 467.349 575.79 468.496 577.146 469.605C642.596 522.953 753.84 516.289 829.212 494.375C919.138 468.227 987.953 420.409 1048.67 378.218C1051.38 376.329 1054.1 374.441 1056.81 372.554C1060.48 369.996 1064.15 367.44 1067.83 364.889C1102.78 340.626 1137.29 317.047 1175.24 295.32C1218.87 270.332 1260.9 251.442 1303.71 237.57C1330.35 228.965 1358.31 222.398 1386.82 218.055C1413.47 213.993 1441.48 211.739 1470.09 211.351C1520.54 210.669 1574.31 215.609 1634.46 226.451C1681.45 234.871 1736.86 245.913 1791.54 263.975C1847.89 282.64 1900.58 306.597 1951.54 329.764C1956.54 332.04 1961.54 334.31 1966.52 336.569C2084.14 390.295 2200.1 450.352 2311.15 515.069L2310.89 515.226Z" fill="#FFE492"/>
<path d="M2307.01 513.152C2195.33 446.79 2081.22 385.975 1967.82 332.401C1961.04 329.196 1954.1 325.892 1947.38 322.698C1899.31 299.821 1849.6 276.165 1795.61 258.491C1741.69 240.904 1685.84 231.667 1638.31 224.953C1511.81 206.909 1408.2 213.271 1312.26 244.974C1220.75 275.324 1149.05 320.963 1079.72 365.098L1072.1 369.943C1066.09 373.771 1059.87 377.727 1053.74 381.608C984.34 425.49 914.863 466.617 828.132 487.653C807.086 492.758 785.475 496.296 763.894 498.174C740.719 500.188 718.208 500.217 696.982 498.257C673.928 496.129 652.578 491.658 633.525 484.968C612.79 477.688 594.668 467.731 579.667 455.377C578.315 454.259 576.971 453.108 575.67 451.954C552.671 431.583 538.561 408.028 524.916 385.249C521.871 380.166 518.72 374.909 515.54 369.804C497.864 341.374 477.903 316.677 454.512 294.302C451.588 291.507 448.558 288.7 445.505 285.964C389.82 236.024 313.465 194.117 224.693 164.771C120.781 130.522 10.9596 115.236 -84.5505 121.732C-149.36 126.234 -215.939 149.7 -246.453 178.8C-267.48 198.85 -271.874 221.193 -259.159 243.416L-259.508 243.489C-266.161 231.861 -268.217 220.231 -265.619 208.925C-263.223 198.502 -256.88 188.327 -246.768 178.685C-231.012 163.663 -206.416 150.204 -175.631 139.761C-147.139 130.095 -114.808 123.616 -84.5944 121.516C-34.4962 118.109 19.266 120.62 75.2083 128.981C125.779 136.54 176.13 148.516 224.865 164.579C313.689 193.941 390.087 235.874 445.806 285.843C448.858 288.581 451.892 291.39 454.816 294.186C478.221 316.571 498.194 341.281 515.877 369.727C519.057 374.832 522.208 380.091 525.253 385.174C538.89 407.94 552.993 431.484 575.967 451.831C577.264 452.98 578.608 454.129 579.957 455.247C643.832 507.853 749.964 506.376 827.989 487.451C914.651 466.432 984.098 425.32 1053.47 381.458C1059.6 377.577 1065.82 373.621 1071.83 369.793L1079.45 364.948C1113.48 343.285 1148.67 320.881 1186.89 300.041C1230.18 276.438 1271.13 258.363 1312.08 244.781C1338.44 236.068 1366.01 229.178 1394 224.304C1420.32 219.721 1447.9 216.766 1475.97 215.523C1526.21 213.297 1579.33 216.313 1638.39 224.737C1685.94 231.456 1741.82 240.695 1795.77 258.297C1849.8 275.978 1899.52 299.641 1947.61 322.524C1954.32 325.718 1961.26 329.02 1968.05 332.227C2081.45 385.806 2195.58 446.625 2307.26 512.993L2307.01 513.152Z" fill="#FFE492"/>
<path d="M2303.12 511.078C2192.41 443.979 2080.11 382.403 1969.35 328.062C1961.03 323.979 1952.49 319.733 1944.24 315.627C1898.76 292.997 1851.73 269.597 1799.85 252.82C1746.19 235.535 1690.08 228.172 1642.27 223.25C1519.28 210.392 1417.07 219.589 1320.63 252.191C1236.47 280.762 1167.37 321.254 1100.54 360.411C1093.51 364.532 1086.24 368.792 1079.15 372.919C1070.83 377.767 1064.47 381.45 1058.54 384.857C1026.77 403.098 988.942 424.101 949.246 441.571C907.179 460.082 867.157 472.894 826.89 480.739C805.715 484.865 784.196 487.467 762.927 488.47C740.089 489.549 717.977 488.757 697.209 486.113C674.708 483.249 653.856 478.21 635.225 471.137C615.021 463.467 597.276 453.332 582.481 441.018C581.147 439.902 579.81 438.749 578.513 437.591C555.818 417.356 541.235 394.165 527.129 371.737C523.857 366.535 520.475 361.158 517.063 355.934C498.593 327.583 478.144 303.088 454.544 281.046C451.576 278.275 448.502 275.494 445.406 272.78C388.947 223.287 311.992 181.939 222.861 153.203C118.227 119.584 8.09769 105.057 -87.2438 112.295C-141.493 116.504 -212.348 135.893 -248.351 169.719C-269.756 189.831 -274.893 212.276 -263.201 234.626L-263.549 234.692C-269.665 223.005 -271.262 211.325 -268.302 199.975C-265.568 189.499 -258.962 179.28 -248.659 169.601C-232.735 154.64 -208.23 141.203 -177.786 130.738C-149.58 121.043 -117.443 114.417 -87.2878 112.077C-37.2482 108.278 16.5726 110.397 72.6834 118.38C123.375 125.591 173.961 137.241 223.033 153.009C312.215 181.761 389.215 223.133 445.707 272.655C448.803 275.369 451.88 278.154 454.848 280.927C478.459 302.98 498.919 327.488 517.401 355.852C520.815 361.078 524.197 366.456 527.469 371.658C541.565 394.074 556.144 417.252 578.813 437.465C580.11 438.621 581.444 439.772 582.778 440.886C635.917 485.12 727.133 499.939 826.776 480.526C917.014 462.946 990.624 423.544 1058.29 384.694C1064.22 381.287 1070.57 377.604 1078.89 372.756C1085.98 368.629 1093.25 364.369 1100.28 360.248C1133.18 340.971 1167.2 321.038 1203.49 302.373C1244.52 281.264 1282.78 264.785 1320.46 251.995C1346.57 243.167 1373.73 235.954 1401.19 230.556C1427.2 225.442 1454.35 221.79 1481.87 219.697C1531.98 215.888 1584.47 216.978 1642.34 223.027C1690.17 227.954 1746.31 235.32 1800.02 252.62C1851.93 269.408 1898.98 292.814 1944.47 315.451C1952.72 319.556 1961.26 323.803 1969.58 327.886C2080.35 382.233 2192.66 443.814 2303.38 510.918L2303.12 511.078Z" fill="#FFE492"/>
<path d="M2299.24 509.005C2189.48 441.164 2079.01 378.824 1970.87 323.722C1961.67 319.035 1952.23 314.115 1943.09 309.358C1899.56 286.697 1854.56 263.266 1804.09 247.146C1750.39 230.068 1694.16 224.619 1646.23 221.542C1528.81 213.8 1425.04 226.184 1329 259.403C1252.53 285.973 1186.98 321.518 1123.58 355.895C1110.78 362.838 1097.54 370.018 1084.67 376.862C1076.79 381.052 1069.82 384.73 1063.33 388.107C1033.17 403.794 993.055 423.907 950.186 440.345C907.112 456.859 866.372 467.811 825.639 473.823C781.213 480.381 736.874 480.429 697.42 473.966C675.484 470.371 655.126 464.767 636.912 457.306C617.248 449.252 599.88 438.94 585.286 426.663C583.964 425.545 582.637 424.389 581.348 423.232C558.975 403.151 543.938 380.341 529.399 358.283C525.882 352.947 522.247 347.43 518.579 342.07C499.299 313.794 478.363 289.497 454.572 267.797C451.561 265.049 448.442 262.293 445.302 259.603C388.07 210.557 310.518 169.766 221.028 141.644C115.672 108.657 5.23502 94.8872 -89.9416 102.867C-154.443 108.392 -218.846 131.595 -250.195 160.6C-272.011 180.784 -277.906 203.345 -267.244 225.845L-267.595 225.905C-273.168 214.147 -274.304 202.405 -270.974 191.007C-267.896 180.471 -261.007 170.2 -250.503 160.479C-234.41 145.589 -210.001 132.182 -179.912 121.708C-152.003 111.994 -120.067 105.223 -89.9929 102.647C-40.012 98.4556 13.8675 100.186 70.1505 107.787C120.967 114.651 171.787 125.975 221.196 141.446C310.737 169.586 388.334 210.399 445.603 259.475C448.743 262.165 451.861 264.924 454.876 267.673C478.678 289.387 499.625 313.695 518.916 341.984C522.584 347.344 526.219 352.863 529.736 358.199C544.268 380.246 559.297 403.045 581.648 423.106C582.938 424.264 584.26 425.415 585.583 426.534C637.81 470.481 727.516 488.079 825.551 473.609C914.924 460.417 992.535 424.638 1063.09 387.942C1069.57 384.565 1076.55 380.889 1084.42 376.699C1097.29 369.855 1110.53 362.677 1123.33 355.734C1186.74 321.351 1252.31 285.797 1328.82 259.216C1354.7 250.263 1381.46 242.728 1408.37 236.815C1434.1 231.162 1460.81 226.81 1487.75 223.88C1537.84 218.431 1589.7 217.597 1646.27 221.326C1694.22 224.406 1750.5 229.856 1804.26 246.954C1854.76 263.086 1899.78 286.526 1943.33 309.195C1952.47 313.952 1961.91 318.87 1971.11 323.557C2079.25 378.663 2189.74 441.007 2299.5 508.853L2299.24 509.005Z" fill="#FFE492"/>
<path d="M2295.35 506.931C2186.58 438.341 2077.92 375.242 1972.4 319.383C1962.71 314.249 1952.73 308.814 1943.09 303.557C1901.15 280.705 1857.78 257.074 1808.33 241.473C1754.41 224.54 1698.13 221.033 1650.19 219.836C1537.21 216.806 1434.88 232.108 1337.38 266.616C1268.99 290.932 1208.04 321.707 1149.08 351.467C1128.81 361.701 1109.66 371.368 1090.19 380.805C1082.27 384.646 1075.05 388.098 1068.13 391.354C1023.45 412.343 986.271 427.52 951.133 439.112C907.051 453.656 865.596 462.748 824.398 466.904C808.415 468.515 792.491 469.319 776.857 469.319C749.142 469.319 722.325 466.8 697.637 461.812C652.958 452.784 616.105 436.127 588.101 412.302C586.782 411.172 585.467 410.017 584.192 408.863C562.16 388.956 546.701 366.551 531.752 344.881C527.964 339.391 524.05 333.716 520.104 328.197C500 299.987 478.572 275.893 454.61 254.538C451.554 251.815 448.392 249.083 445.208 246.417C387.203 197.818 309.049 157.586 219.2 130.073C113.123 97.7201 2.38132 84.7057 -92.6305 93.4275C-157.399 99.4966 -219.944 122.259 -251.964 151.418C-274.223 171.685 -280.899 194.381 -271.277 217.053L-271.633 217.108C-276.656 205.269 -277.323 193.457 -273.611 181.999C-270.174 171.393 -262.997 161.064 -252.268 151.297C-236.007 136.488 -211.704 123.126 -181.981 112.652C-154.373 102.922 -122.661 96.0184 -92.6854 93.2095C-42.7631 88.6263 11.175 89.9647 67.6266 97.1874C118.567 103.706 169.618 114.703 219.368 129.875C309.269 157.405 387.466 197.659 445.508 246.287C448.692 248.955 451.854 251.687 454.914 254.412C478.891 275.778 500.329 299.885 520.441 328.107C524.387 333.625 528.304 339.303 532.089 344.793C547.031 366.452 562.482 388.849 584.496 408.738C585.771 409.889 587.082 411.045 588.401 412.172C640.694 456.665 726.689 476.535 824.335 466.684C917.288 457.306 999.619 423.253 1067.9 391.178C1074.82 387.922 1082.04 384.472 1089.96 380.631C1109.43 371.194 1128.58 361.53 1148.85 351.296C1207.81 321.529 1268.78 290.75 1337.19 266.425C1362.88 257.333 1389.24 249.474 1415.56 243.064C1441.05 236.856 1467.32 231.804 1493.64 228.051C1543.84 220.894 1595.06 218.134 1650.21 219.613C1698.19 220.811 1754.51 224.322 1808.5 241.274C1857.99 256.886 1901.37 280.529 1943.33 303.39C1952.98 308.647 1962.95 314.082 1972.64 319.213C2078.16 375.077 2186.83 438.183 2295.61 506.777L2295.35 506.931Z" fill="#FFE492"/>
<path d="M2291.47 504.857C2182.15 434.538 2078.28 372.449 1973.93 315.042C1963.97 309.565 1954.17 303.971 1943.79 298.05C1903.22 274.9 1861.26 250.965 1812.58 235.8C1757.98 218.874 1699.23 217.465 1654.15 218.13C1546.31 219.512 1445.43 237.733 1345.75 273.833C1285.94 295.597 1230.72 321.734 1177.32 347.012C1149.25 360.297 1122.74 372.843 1095.71 384.75C1087.68 388.287 1080.23 391.51 1072.92 394.603C1027.63 413.746 989.231 427.495 952.071 437.877C906.967 450.478 864.797 457.709 823.152 459.985C801.754 461.154 780.503 460.934 759.988 459.331C738.268 457.634 717.361 454.378 697.85 449.656C654.603 439.189 618.626 421.792 590.915 397.945C589.607 396.813 588.303 395.655 587.035 394.502C565.373 374.8 549.526 352.821 534.2 331.567C530.111 325.897 525.883 320.032 521.629 314.331C500.681 286.182 478.771 262.289 454.643 241.286C451.539 238.587 448.333 235.879 445.113 233.237C386.335 185.085 307.584 145.412 217.375 118.51C134.114 93.782 48.2515 80.8798 -30.4847 80.8798C-52.7436 80.8798 -74.4163 81.9101 -95.3195 83.9948C-159.308 90.5019 -221.461 113.345 -253.668 142.192C-276.399 162.554 -283.885 185.404 -275.315 208.27L-275.674 208.318C-280.148 196.387 -280.334 184.493 -276.231 172.969C-272.427 162.286 -264.938 151.889 -253.975 142.069C-237.546 127.353 -213.356 114.045 -184.015 103.582C-156.318 93.7049 -125.669 86.8565 -95.3855 83.779C-45.5218 78.804 8.47488 79.7528 65.0987 86.5946C116.161 92.7627 167.449 103.433 217.537 118.309C307.796 145.227 386.595 184.922 445.41 233.103C448.634 235.745 451.844 238.455 454.947 241.156C479.086 262.17 501.008 286.074 521.966 314.236C526.22 319.938 530.452 325.802 534.541 331.475C549.86 352.72 565.699 374.69 587.343 394.376C588.611 395.527 589.915 396.685 591.219 397.815C643.04 442.407 727.561 464.984 823.123 459.763C919.82 454.477 1007.3 422.065 1072.72 394.418C1080.02 391.325 1087.47 388.102 1095.5 384.567C1122.53 372.664 1149.03 360.117 1177.1 346.834C1230.51 321.553 1285.73 295.41 1345.56 273.639C1396.89 255.053 1447.25 241.508 1499.53 232.227C1549.96 223.276 1600.54 218.592 1654.15 217.905C1684.74 217.454 1709.7 218.237 1732.69 220.368C1762.38 223.12 1788.57 228.102 1812.75 235.599C1861.48 250.778 1903.46 274.726 1944.05 297.887C1954.43 303.808 1964.23 309.4 1974.18 314.877C2078.54 372.286 2182.42 434.379 2291.74 504.703L2291.47 504.857Z" fill="#FFE492"/>
<path d="M2287.58 502.784C2179.27 431.693 2077.17 368.865 1975.45 310.701C1965.39 304.946 1955.47 299.018 1944.97 292.742C1905.61 269.227 1864.91 244.909 1816.82 230.125C1761.77 213.278 1703.09 213.951 1658.11 216.419C1556.35 221.81 1456.91 242.95 1354.12 281.042C1303.48 299.901 1255.26 321.483 1208.63 342.356C1171.76 358.855 1136.95 374.441 1101.23 388.686C1093.16 391.908 1085.24 394.99 1077.71 397.843C1032.34 415.023 991.544 427.709 953.009 436.629C906.868 447.31 863.984 452.685 821.907 453.06C800.498 453.249 779.331 452.087 759.006 449.601C737.7 446.995 717.196 442.92 698.063 437.487C656.3 425.629 621.195 407.492 593.726 383.579C592.436 382.449 591.139 381.289 589.875 380.129C568.62 360.667 552.429 339.153 536.769 318.348C532.339 312.462 527.755 306.373 523.15 300.453C501.345 272.358 478.947 248.667 454.676 228.022C451.529 225.348 448.279 222.664 445.014 220.047C385.463 172.341 306.111 133.228 215.544 106.935C108.027 75.8519 -3.33383 64.3521 -98.0158 74.5532C-161.176 81.4764 -222.915 104.379 -255.301 132.898C-278.546 153.368 -286.863 176.39 -279.359 199.478L-279.718 199.519C-283.632 187.485 -283.331 175.498 -278.821 163.895C-274.633 153.124 -266.825 142.652 -255.605 132.772C-239.015 118.162 -214.946 104.921 -186 94.4798C-158.622 84.6045 -128.222 77.6394 -98.0818 74.3352C-48.2731 68.9705 5.77863 69.5253 62.571 75.9884C113.757 81.8132 165.277 92.1573 215.701 106.735C306.324 133.041 385.719 172.179 445.304 219.913C448.572 222.53 451.826 225.216 454.973 227.893C479.258 248.548 501.664 272.25 523.479 300.357C528.089 306.276 532.669 312.365 537.102 318.254C552.755 339.05 568.939 360.555 590.179 380.004C591.443 381.161 592.74 382.322 594.026 383.449C646.393 429.034 727.32 453.681 821.899 452.835C898.642 452.153 979.866 434.617 1077.52 397.652C1085.04 394.799 1092.95 391.719 1101.02 388.496C1136.73 374.254 1171.55 358.672 1208.4 342.173C1255.04 321.298 1303.27 299.712 1353.93 280.848C1405.75 261.641 1455.3 247.104 1505.42 236.399C1556.18 225.555 1606.12 218.944 1658.08 216.192C1703.1 213.72 1761.85 213.049 1816.99 229.922C1865.13 244.724 1905.85 269.053 1945.23 292.579C1955.73 298.855 1965.65 304.781 1975.71 310.533C2077.43 368.7 2179.53 431.533 2287.85 502.628L2287.58 502.784Z" fill="#FFE492"/>
<path d="M2283.7 500.71C2176.39 428.847 2076.07 365.274 1976.98 306.362C1966.93 300.381 1956.99 294.166 1946.48 287.586C1908.24 263.651 1868.69 238.901 1821.07 224.452C1765.5 207.666 1706.91 210.429 1662.08 214.711C1566.32 223.681 1471.13 247.051 1362.5 288.256C1321.75 303.78 1281.93 320.809 1243.43 337.277C1196.66 357.279 1152.49 376.173 1106.75 392.628C1098.51 395.596 1090.35 398.444 1082.51 401.09C1036.32 416.663 994.265 427.881 953.949 435.383C931.368 439.585 909.076 442.63 887.693 444.433C864.884 446.354 842.332 446.929 820.663 446.141C776.698 444.54 735.522 437.536 698.281 425.323C658.061 412.132 623.832 393.258 596.546 369.219C595.263 368.081 593.977 366.919 592.721 365.765C571.92 346.589 555.439 325.586 539.504 305.276C534.679 299.128 529.692 292.771 524.676 286.585C501.992 258.535 479.107 235.045 454.712 214.768C451.52 212.115 448.223 209.456 444.918 206.865C384.593 159.604 304.644 121.05 213.718 95.3712C105.483 64.9244 -6.18222 54.1818 -100.707 65.1203C-201.918 77.0142 -300.542 128.405 -283.395 190.692L-283.758 190.727C-288.048 175.146 -285.535 159.796 -276.29 145.1C-267.848 131.678 -253.995 119.047 -235.114 107.56C-217.56 96.8792 -196.499 87.6577 -172.522 80.1511C-149.717 73.0121 -124.908 67.7377 -100.78 64.9024C-51.0299 59.1458 3.08041 59.3109 60.045 65.3955C111.356 70.8746 163.11 80.893 213.872 95.1731C304.849 120.869 384.846 159.446 445.207 206.733C448.516 209.326 451.813 211.985 455.008 214.64C479.414 234.926 502.311 258.43 525.006 286.49C530.022 292.676 535.009 299.033 539.834 305.184C555.765 325.487 572.239 346.481 593.028 365.646C594.281 366.8 595.564 367.962 596.846 369.098C649.289 415.295 728.784 442.577 820.685 445.923C898.487 448.752 984.071 434.027 1082.33 400.901C1090.17 398.255 1098.32 395.409 1106.56 392.441C1152.29 375.99 1196.46 357.098 1243.22 337.099C1281.73 320.629 1321.55 303.597 1362.3 288.071C1470.98 246.848 1566.21 223.47 1662.02 214.493C1692.14 211.616 1717.08 210.695 1740.52 211.6C1770.47 212.756 1796.87 216.895 1821.23 224.254C1868.9 238.719 1908.47 263.484 1946.74 287.432C1957.25 294.01 1967.18 300.224 1977.24 306.203C2076.33 365.12 2176.66 428.695 2283.96 500.563L2283.7 500.71Z" fill="#FFE492"/>
<path d="M2279.81 498.636C2173.53 425.989 2074.97 361.677 1978.51 302.02C1968.53 295.848 1958.67 289.382 1948.23 282.534C1911.02 258.141 1872.54 232.916 1825.31 218.776C1768.53 201.85 1707.22 207.373 1666.04 213C1554.27 228.084 1454.11 263.151 1370.87 295.469C1340.96 307.132 1311.12 319.486 1282.25 331.433C1224.36 355.399 1169.68 378.035 1112.28 396.571C1103.83 399.298 1095.44 401.911 1087.31 404.339C1040.22 418.382 996.904 428.129 954.899 434.134C907.282 440.943 861.705 442.656 819.426 439.222C775.992 435.693 735.307 426.923 698.506 413.153C659.905 398.712 626.552 379.101 599.365 354.862C598.097 353.723 596.818 352.559 595.569 351.401C575.285 332.577 558.599 312.151 542.459 292.396C537.171 285.922 531.701 279.23 526.205 272.716C502.297 244.314 479.591 221.691 454.753 201.513C451.518 198.885 448.18 196.252 444.827 193.683C383.722 146.872 303.172 108.876 211.887 83.805C102.933 53.9966 -9.03906 44.0091 -103.402 55.685C-204.976 68.4198 -301.586 119.113 -287.435 181.906L-287.798 181.935C-291.308 166.356 -288.271 151.021 -278.773 136.358C-270.068 122.923 -256.133 110.278 -237.352 98.7786C-219.838 88.0537 -198.887 78.764 -175.078 71.1627C-152.409 63.9247 -127.647 58.4983 -103.476 55.4671C-53.7805 49.3187 0.384796 49.0942 57.5179 54.7979C108.953 59.9314 160.942 69.624 212.041 83.6047C303.381 108.689 383.975 146.706 445.109 193.547C448.462 196.118 451.803 198.753 455.042 201.381C479.895 221.568 502.609 244.204 526.527 272.617C532.023 279.131 537.494 285.825 542.781 292.299C558.917 312.048 575.6 332.467 595.869 351.282C597.119 352.44 598.394 353.602 599.661 354.741C652.511 401.858 730.573 431.783 819.47 439.004C899.199 445.48 986.754 434.075 1087.14 404.141C1095.27 401.715 1103.67 399.104 1112.1 396.377C1169.49 377.846 1224.16 355.214 1282.05 331.25C1310.91 319.303 1340.75 306.947 1370.67 295.282C1426.64 273.553 1473.2 257.498 1517.19 244.759C1568.98 229.763 1617.64 219.305 1665.95 212.784C1695.41 208.76 1721.08 206.938 1744.43 207.215C1774.51 207.572 1801.02 211.287 1825.47 218.578C1872.77 232.735 1911.26 257.976 1948.49 282.384C1958.94 289.231 1968.8 295.696 1978.77 301.864C2075.24 361.523 2173.8 425.84 2280.09 498.489L2279.81 498.636Z" fill="#FFE492"/>
<path d="M2275.93 496.56C2170.67 423.128 2073.88 358.073 1980.04 297.677C1970.2 291.344 1960.46 284.654 1950.15 277.57C1913.92 252.686 1876.47 226.955 1829.56 213.101C1772.16 196.215 1711.01 203.979 1670 211.29C1568.74 229.189 1478.41 263.27 1379.25 302.681C1361.36 309.816 1343.27 317.179 1325.78 324.303C1258.49 351.696 1188.92 380.021 1117.8 400.511C1109.16 403.003 1100.51 405.383 1092.1 407.584C1044.69 419.982 998.846 428.492 955.841 432.88C907.124 437.85 860.811 437.654 818.176 432.301C775.351 426.923 735.161 416.385 698.718 400.98C661.84 385.39 629.354 365.043 602.167 340.505C600.911 339.364 599.643 338.198 598.401 337.04C578.729 318.656 561.937 298.895 545.698 279.785C539.846 272.899 533.797 265.78 527.718 258.852C502.876 230.479 479.698 208.049 454.775 188.264C451.503 185.666 448.117 183.055 444.717 180.506C382.85 134.135 301.707 96.6985 210.055 72.2393C100.387 43.0693 -11.8897 33.839 -106.099 46.2502C-204.449 59.3482 -302.842 108.262 -291.48 173.118L-291.843 173.14C-294.573 157.561 -291.011 142.244 -281.261 127.614C-272.296 114.164 -258.277 101.508 -239.598 89.9954C-205.134 68.7568 -156.505 52.7332 -106.18 46.0323C-56.5432 39.4943 -2.31931 38.8779 54.986 44.2008C106.546 48.9909 158.766 58.3554 210.201 72.0368C301.904 96.5092 383.096 133.97 445.003 180.363C448.407 182.914 451.792 185.525 455.068 188.125C480.002 207.922 503.191 230.36 528.041 258.744C534.119 265.674 540.172 272.793 546.024 279.679C562.259 298.785 579.047 318.542 598.709 336.916C599.947 338.074 601.215 339.239 602.472 340.379C656.864 389.474 731.478 421.184 818.246 432.083C898.591 442.174 990.675 433.864 1091.95 407.382C1100.35 405.18 1108.99 402.803 1117.63 400.313C1188.73 379.829 1258.29 351.509 1325.56 324.12C1343.06 316.996 1361.15 309.633 1379.04 302.498C1422.44 285.246 1472.95 265.458 1523.08 248.937C1575.52 231.657 1623.54 219.274 1669.89 211.081C1699.07 205.879 1724.74 203.18 1748.35 202.832C1778.12 202.392 1805.49 205.782 1829.71 212.906C1850.72 219.111 1871.87 228.372 1894.37 241.219C1914.23 252.563 1932.63 265.203 1950.42 277.425C1960.72 284.507 1970.46 291.197 1980.3 297.528C2074.15 357.926 2170.94 422.982 2276.2 496.417L2275.93 496.56Z" fill="#FFE492"/>
<path d="M2272.04 494.486C2167.82 420.261 2072.8 354.465 1981.57 293.338C1971.9 286.866 1962.33 279.974 1952.2 272.678C1916.92 247.277 1880.44 221.01 1833.8 207.43C1790.22 194.779 1737.93 195.484 1673.96 209.583C1584.51 229.186 1504.56 261.975 1419.9 296.693C1409.36 301.016 1398.47 305.485 1387.62 309.899C1383.37 311.631 1379.12 313.368 1374.88 315.103C1294.22 348.055 1210.81 382.129 1123.32 404.456C1114.47 406.714 1105.59 408.86 1096.9 410.833C1048.45 421.824 1001.31 428.82 956.797 431.625C906.955 434.764 859.898 432.664 816.941 425.382C774.783 418.234 735.087 405.928 698.956 388.806C663.935 372.21 632.322 351.13 604.992 326.147C603.746 325.004 602.49 323.836 601.255 322.675C582.33 304.869 565.593 285.904 549.401 267.565C542.847 260.137 536.064 252.457 529.253 244.981C503.451 216.628 479.803 194.392 454.822 175.007C451.502 172.431 448.077 169.847 444.632 167.322C381.981 121.399 300.237 84.5203 208.226 60.673C97.8473 32.1436 -14.7408 23.6684 -108.793 36.8148C-205.336 50.4213 -303.59 99.736 -295.519 164.332L-295.885 164.35C-297.831 148.769 -293.749 133.469 -283.746 118.877C-274.516 105.411 -260.417 92.7401 -241.837 81.2182C-207.52 59.9356 -159.059 43.6742 -108.877 36.6013C-59.2953 29.6714 -5.01648 28.6632 52.4574 33.6074C104.142 38.0498 156.6 47.0885 208.373 60.4705C300.435 84.3331 382.23 121.232 444.907 167.179C448.351 169.704 451.785 172.292 455.104 174.868C480.096 194.264 503.759 216.507 529.568 244.871C536.383 252.347 543.162 260.029 549.72 267.457C565.904 285.792 582.642 304.752 601.559 322.552C602.794 323.712 604.047 324.879 605.293 326.021C660.865 376.82 734.083 411.101 817.036 425.164C898.924 439.045 993.038 434.152 1096.77 410.621C1105.45 408.649 1114.33 406.505 1123.17 404.249C1210.64 381.931 1294.03 347.863 1374.67 314.916C1378.92 313.179 1383.16 311.444 1387.41 309.712C1398.26 305.298 1409.15 300.829 1419.69 296.508C1504.37 261.784 1584.35 228.986 1673.83 209.374C1702.73 203.003 1728.39 199.431 1752.27 198.447C1782.16 197.216 1809.64 200.173 1833.96 207.23C1854.85 213.312 1875.73 222.615 1897.81 235.671C1917.28 247.191 1935.18 260.076 1952.48 272.535C1962.62 279.828 1972.18 286.719 1981.84 293.188C2073.08 354.318 2168.1 420.116 2272.32 494.343L2272.04 494.486Z" fill="#FFE492"/>
<path d="M2268.16 492.413C2173.03 423.247 2077.12 354.807 1983.09 288.997C1973.52 282.336 1964.03 275.179 1953.99 267.605C1921.33 242.963 1884.3 215.034 1838.05 201.758C1793.95 189.129 1741.58 191.13 1677.92 207.873C1602.23 227.716 1535.24 256.893 1464.33 287.782C1442.12 297.455 1419.15 307.46 1395.99 317.111C1355.56 333.993 1311.82 351.857 1265.97 368.127C1216.87 385.553 1172.01 398.724 1128.83 408.396C1119.76 410.428 1110.63 412.341 1101.68 414.078C1052.2 423.682 1003.78 429.148 957.768 430.324C906.827 431.623 859.026 427.634 815.688 418.459C735.659 401.306 665.713 365.417 607.795 311.788C606.561 310.643 605.315 309.472 604.087 308.312C586.123 291.291 569.678 273.335 553.777 255.968C546.291 247.795 538.553 239.341 530.767 231.115C503.983 202.768 479.859 180.728 454.848 161.755C451.481 159.201 448.011 156.641 444.526 154.143C381.113 108.663 298.768 72.3449 206.398 49.1074C95.3047 21.2163 -17.5875 13.5006 -111.485 27.3801C-208.615 41.8188 -304.407 90.4796 -299.56 155.547L-299.926 155.556C-301.088 139.97 -296.478 124.689 -286.23 110.133C-276.733 96.65 -262.553 83.9658 -244.079 72.4351C-226.675 61.5715 -206.047 52.0726 -182.769 44.2006C-160.169 36.5597 -136.218 30.8274 -111.577 27.1644C-62.0504 19.8449 -7.71295 18.4448 49.9295 23.0082C101.739 27.1093 154.427 35.8201 206.537 48.9027C298.962 72.1533 381.355 108.493 444.805 153.995C448.289 156.496 451.766 159.058 455.134 161.612C480.155 180.596 504.29 202.645 531.085 231.001C538.871 239.229 546.61 247.682 554.095 255.858C569.997 273.222 586.438 291.177 604.395 308.191C605.619 309.353 606.868 310.522 608.099 311.667C665.973 365.254 735.857 401.114 815.809 418.25C898.165 435.684 996.98 434.17 1101.57 413.867C1110.51 412.13 1119.64 410.219 1128.7 408.189C1225.25 386.566 1313.58 351.249 1395.78 316.928C1418.94 307.277 1441.9 297.274 1464.11 287.602C1535.04 256.706 1602.04 227.522 1677.77 207.671C1741.52 190.901 1794 188.9 1838.2 201.557C1858.92 207.503 1879.49 216.824 1901.09 230.047C1920.13 241.708 1937.49 254.804 1954.28 267.466C1964.32 275.041 1973.8 282.195 1983.37 288.852C2077.4 354.664 2173.31 423.104 2268.44 492.272L2268.16 492.413Z" fill="#FFE492"/>
<path d="M2264.27 490.339C2170.6 420.79 2076.51 351.588 1984.62 284.656C1975.35 277.923 1966.15 270.64 1956.4 262.931C1924.54 237.715 1888.43 209.133 1842.29 196.081C1797.67 183.474 1745.2 186.771 1681.87 206.159C1615.53 226.442 1554.57 255.081 1495.63 282.781C1466.07 296.669 1435.5 311.031 1404.36 324.32C1355.2 345.317 1313.84 361.334 1274.2 374.729C1225.31 391.246 1179.56 403.547 1134.35 412.335C1125.07 414.14 1115.69 415.817 1106.48 417.321C1058.46 425.151 1011.31 429.113 966.209 429.116C963.703 429.116 961.212 429.102 958.72 429.078C906.574 428.567 858.033 422.663 814.446 411.533C793.407 406.131 772.804 399.274 753.213 391.151C734.797 383.517 716.701 374.524 699.425 364.425C668.343 346.255 639.287 324.338 610.605 297.426C609.374 296.269 608.146 295.108 606.926 293.944C590.284 278.066 574.54 261.467 559.316 245.415C550.526 236.15 541.439 226.567 532.287 217.24C504.107 188.504 480.235 167.3 454.877 148.494C451.466 145.965 447.952 143.429 444.423 140.955C380.241 95.926 297.298 60.1673 204.569 37.5396C92.7651 10.2891 -20.4349 3.33067 -114.179 17.9432C-209.487 32.842 -305.155 81.8726 -303.598 146.757L-303.964 146.76C-304.69 116.537 -284.754 87.7986 -246.315 63.652C-228.94 52.7377 -208.421 43.1707 -185.323 35.2106C-162.848 27.4663 -138.944 21.5842 -114.271 17.7275C-64.8025 10.0162 -10.4065 8.22646 47.4045 12.409C99.3383 16.1667 152.262 24.5517 204.705 37.3327C297.492 59.9758 380.482 95.7565 444.705 140.812C448.234 143.288 451.755 145.826 455.166 148.356C480.536 167.173 504.418 188.383 532.605 217.13C541.758 226.459 550.849 236.042 559.635 245.307C574.859 261.357 590.599 277.953 607.238 293.827C608.458 294.992 609.682 296.152 610.913 297.308C671.86 354.494 738.483 391.792 814.589 411.331C919.999 438.249 1031.45 429.331 1106.38 417.109C1115.59 415.606 1124.96 413.931 1134.24 412.126C1238.22 391.913 1333.1 354.488 1404.15 324.142C1435.29 310.857 1465.85 296.495 1495.4 282.609C1554.37 254.905 1615.33 226.257 1681.71 205.965C1710.04 197.289 1735.69 191.962 1760.1 189.681C1790.22 186.868 1817.92 188.955 1842.44 195.885C1863.1 201.729 1883.48 211.125 1904.72 224.606C1923.44 236.484 1940.35 249.862 1956.7 262.801C1966.44 270.508 1975.63 277.788 1984.9 284.518C2076.79 351.45 2170.88 420.651 2264.56 490.201L2264.27 490.339Z" fill="#FFE492"/>
<path d="M2260.39 488.266L1986.15 280.317C1977.19 273.526 1968.3 266.136 1958.88 258.315C1927.81 232.502 1892.58 203.246 1846.53 190.41C1802 177.999 1747.94 182.723 1685.83 204.452C1626.13 225.341 1571.68 253.12 1519.02 279.985C1484.7 297.497 1449.2 315.603 1412.74 331.538C1303.13 379.435 1207.33 407.725 1111.28 420.57C1071.43 425.897 1032.11 428.578 993.99 428.578C982.434 428.578 970.995 428.332 959.676 427.839C906.299 425.514 857.018 417.699 813.207 404.614C772.602 392.485 735.457 375.363 699.659 352.266C671.072 333.823 643.669 311.836 613.423 283.071C597.458 267.891 582 252.118 567.051 236.865C533.217 202.348 498.233 166.655 454.921 135.242C388.485 87.061 301.281 49.277 202.737 25.9736C90.2257 -0.634153 -23.282 -6.83755 -116.872 8.50805C-207.483 23.365 -305.829 70.2141 -307.639 137.972L-308.006 137.967C-307.196 107.681 -286.637 78.9468 -248.553 54.8707C-214.119 33.1015 -167.388 16.5606 -116.967 8.29452C-67.5544 0.193556 -13.0997 -1.98798 44.8762 1.81375C96.9346 5.22584 150.092 13.2872 202.872 25.7688C251.633 37.2995 297.943 52.4778 340.519 70.8833C383.45 89.4429 422.036 111.047 455.199 135.097C498.53 166.521 533.525 202.222 567.366 236.748C582.315 251.999 597.773 267.77 613.734 282.948C657.863 324.919 720.438 376.653 813.372 404.412C919.951 436.246 1034.15 430.65 1111.19 420.35C1207.21 407.514 1302.95 379.235 1412.52 331.356C1448.97 315.427 1484.46 297.321 1518.78 279.813C1571.45 252.944 1625.92 225.158 1685.65 204.259C1747.86 182.492 1802.04 177.763 1846.69 190.207C1867.31 195.955 1887.49 205.432 1908.4 219.184C1926.8 231.289 1943.26 244.962 1959.18 258.183C1968.59 266.004 1977.49 273.39 1986.44 280.179L2260.68 488.127L2260.39 488.266Z" fill="#FFE492"/>
<path d="M2258.18 472.279C2188.35 414.379 2128.43 367.396 2069.62 324.423C2041.08 303.548 2011.92 283.001 1982.97 263.351C1974.21 257.408 1965.54 251.086 1956.35 244.391C1933.27 227.566 1909.4 210.169 1881.93 197.258C1867.18 190.313 1852.98 185.34 1838.52 182.056C1794.14 171.874 1742.07 178.606 1683.75 202.066C1653.57 214.189 1626.09 227.985 1603.19 239.881C1578.95 252.475 1555.03 266.363 1531.9 279.793C1498.66 299.099 1464.28 319.061 1427.33 336.205C1404.84 346.668 1382.05 356.017 1359.58 363.995C1314.62 379.955 1266.36 393.106 1216.15 403.082C1185.13 409.178 1153.95 413.785 1123.5 416.775C1097.26 419.341 1070.96 420.823 1045.35 421.177C1007.01 421.71 969.661 419.678 934.333 415.132C896.769 410.298 861.221 402.582 828.677 392.196C799.658 382.935 772.247 371.275 744.881 356.546C693.885 329.121 653.21 297.411 623.473 272.848C608.865 260.725 594.601 248.362 580.806 236.407C541.084 201.976 503.564 169.455 456.614 140.488C418.321 117.017 374.631 96.7622 326.746 80.2829C289.948 67.6185 249.926 57.2612 207.794 49.497C197.758 47.6501 187.531 45.9286 177.408 44.3855C133.821 37.7528 84.752 33.4338 31.5687 31.5472C-22.0506 29.6012 -68.4408 31.2853 -110.244 36.7006C-133.877 39.7384 -156.773 44.5044 -178.307 50.8641C-254.328 73.3178 -303.143 111.012 -308.889 151.697L-309.347 151.673C-307.815 140.827 -303.319 130.143 -295.988 119.916C-289.022 110.201 -279.456 100.832 -267.555 92.0689C-245.069 75.5148 -214.276 61.1796 -178.508 50.6153C-156.942 44.2446 -134.009 39.4721 -110.339 36.4298C-68.4921 31.0101 -22.0653 29.3239 31.598 31.2721C84.8106 33.1586 133.905 37.4821 177.521 44.1191C187.656 45.6645 197.886 47.3859 207.929 49.2351C250.095 57.0036 290.15 67.3698 326.977 80.0452C374.895 96.5355 418.621 116.808 456.932 140.294C503.913 169.279 541.439 201.808 581.176 236.248C594.967 248.204 609.231 260.565 623.836 272.685C653.558 297.237 694.214 328.932 745.181 356.339C772.518 371.052 799.9 382.702 828.886 391.952C892.577 412.277 965.4 422.018 1045.33 420.902C1070.93 420.548 1097.2 419.066 1123.43 416.502C1153.86 413.512 1185.01 408.909 1216 402.818C1266.19 392.848 1314.41 379.706 1359.34 363.755C1381.8 355.784 1404.58 346.439 1427.04 335.985C1463.98 318.85 1498.35 298.892 1531.58 279.593C1554.71 266.16 1578.63 252.268 1602.89 239.669C1625.8 227.767 1653.29 213.966 1683.5 201.835C1709.46 191.389 1734.6 184.173 1758.22 180.385C1787.24 175.731 1814.31 176.207 1838.68 181.798C1853.19 185.094 1867.42 190.08 1882.21 197.04C1909.72 209.971 1933.6 227.379 1956.7 244.215C1965.89 250.907 1974.56 257.23 1983.31 263.169C2012.27 282.82 2041.43 303.37 2069.98 324.25C2128.79 367.227 2188.71 414.214 2258.55 472.119L2258.18 472.279Z" fill="#FFE492"/>
<path d="M2255.97 456.289C2191.22 397.409 2130.46 348.139 2070.19 305.664C2040.81 284.916 2010.39 264.972 1979.79 246.386C1971.67 241.455 1963.66 236.33 1955.17 230.906C1929.76 214.662 1903.48 197.866 1874.05 186.245C1859.19 180.352 1844.95 176.249 1830.51 173.699C1775.22 163.934 1719.06 182.434 1681.67 199.673C1655.19 211.851 1631 225.62 1606.49 239.835C1585.05 252.277 1564.87 265.661 1543.51 279.829C1511.8 300.86 1479.02 322.608 1441.92 340.868C1419.9 351.762 1396.92 361.182 1373.62 368.865C1330.22 383.178 1282.7 394.292 1228.33 402.847C1197.9 407.633 1166.75 411.042 1135.72 412.977C1109.54 414.591 1083.41 415.168 1058.04 414.686C1020.31 413.977 983.431 410.789 948.417 405.213C911.645 399.355 876.559 390.797 844.136 379.774C815.728 370.119 788.3 358.14 760.281 343.153C709.395 315.973 665.804 285.841 633.517 262.625C621.565 254.031 609.803 245.384 598.426 237.019C553.121 203.708 510.328 172.242 458.307 145.734C419.428 125.921 375.778 109.169 328.578 95.9434C292.865 85.9361 255.012 78.4383 212.861 73.0208C203.133 71.7726 193.237 70.6477 183.45 69.6769C140.464 65.4349 94.5864 63.8301 39.0801 62.1703C-0.931 60.9134 -53.3082 60.0856 -103.626 64.889C-127.457 67.1212 -150.493 70.9977 -172.1 76.4064C-248.172 95.4547 -299.776 128.73 -310.145 165.422L-310.688 165.367C-307.939 155.637 -302.37 146.095 -294.144 137.001C-286.303 128.336 -276 120.028 -263.524 112.302C-239.814 97.6231 -208.274 85.104 -172.312 76.1005C-150.665 70.6807 -127.585 66.7976 -103.714 64.561C-53.3485 59.751 -0.93103 60.5809 39.1057 61.8379C94.6303 63.4977 140.522 65.1025 183.538 69.3467C193.332 70.3197 203.236 71.4446 212.975 72.6928C255.166 78.1169 293.056 85.6213 328.809 95.6396C376.057 108.879 419.743 125.644 458.662 145.476C510.721 172.004 553.531 203.479 598.851 236.803C610.224 245.166 621.986 253.813 633.938 262.405C666.218 285.612 709.791 315.733 760.647 342.9C788.633 357.871 816.032 369.838 844.407 379.482C908.161 401.154 980.049 412.885 1058.06 414.351C1083.4 414.831 1109.51 414.256 1135.66 412.643C1166.66 410.71 1197.79 407.305 1228.19 402.521C1282.51 393.975 1330 382.87 1373.36 368.57C1396.63 360.896 1419.58 351.489 1441.57 340.606C1478.64 322.361 1511.41 300.623 1543.11 279.602C1564.48 265.428 1584.66 252.041 1606.12 239.592C1630.63 225.37 1654.83 211.596 1681.34 199.405C1705.58 188.228 1729.48 180.189 1752.39 175.505C1780.17 169.825 1806.51 169.11 1830.67 173.376C1845.16 175.936 1859.45 180.053 1874.36 185.963C1903.84 197.606 1930.14 214.418 1955.58 230.675C1964.06 236.097 1972.08 241.219 1980.19 246.148C2010.8 264.741 2041.22 284.692 2070.62 305.446C2130.89 347.932 2191.68 397.211 2256.43 456.104L2255.97 456.289Z" fill="#FFE492"/>
<path d="M2253.76 440.299C2193.16 379.641 2133.31 329.465 2070.77 286.907C2040.53 266.286 2008.85 246.948 1976.62 229.423C1969.73 225.676 1962.63 221.7 1955.77 217.857C1927.45 201.976 1898.16 185.556 1866.18 175.234C1851.17 170.356 1836.88 167.12 1822.51 165.344C1767.33 158.522 1714.34 178.946 1679.59 197.279C1656.05 209.655 1634.52 223.682 1613.7 237.248L1609.8 239.789C1590.9 252.097 1573.17 265.595 1554.4 279.889C1524.5 302.648 1493.59 326.181 1456.51 345.531C1434.93 356.872 1411.77 366.362 1387.67 373.737C1345.65 386.595 1298.88 395.77 1240.5 402.612C1210.31 406.149 1179.17 408.359 1147.93 409.178C1121.81 409.837 1095.84 409.506 1070.73 408.192C994.701 404.232 923.663 390.491 859.587 367.353C831.887 357.35 804.44 345.055 775.681 329.76C727.011 303.932 683.725 277.383 643.563 252.405C638.177 249.057 632.85 245.73 627.563 242.43C572.709 208.202 520.899 175.87 460.011 150.986C420.26 134.74 376.654 121.493 330.41 111.609C296.46 104.353 259.665 99.4264 217.932 96.547C208.527 95.902 198.96 95.3715 189.496 94.9709C165.687 93.9803 140.434 93.8196 113.698 93.6501C92.2233 93.5136 70.0193 93.3727 46.5879 92.7981C1.33353 91.594 -49.9554 90.2314 -97.0162 93.0843C-121.298 94.557 -144.473 97.5421 -165.9 101.958C-241.943 117.632 -296.339 146.493 -311.409 179.164L-312.028 179.06C-308.057 170.446 -301.417 162.044 -292.298 154.086C-283.577 146.476 -272.541 139.225 -259.497 132.535C-234.549 119.74 -202.254 109.042 -166.112 101.593C-144.637 97.1656 -121.415 94.174 -97.0858 92.6991C-49.9774 89.8439 1.33719 91.2088 46.6099 92.4129C70.0266 92.9853 92.2306 93.1283 113.698 93.2648C140.445 93.4343 165.705 93.595 189.536 94.5878C199.008 94.9907 208.585 95.5212 217.998 96.1662C259.783 99.0478 296.621 103.981 330.619 111.248C376.918 121.143 420.571 134.406 460.366 150.669C521.31 175.576 573.145 207.922 628.021 242.166C633.308 245.466 638.639 248.79 644.021 252.141C684.175 277.115 727.448 303.657 776.102 329.476C804.832 344.754 832.25 357.037 859.917 367.027C923.909 390.137 994.855 403.858 1070.78 407.813C1095.87 409.125 1121.81 409.456 1147.9 408.797C1179.1 407.979 1210.22 405.771 1240.37 402.237C1298.69 395.402 1345.41 386.238 1387.37 373.398C1411.43 366.038 1434.54 356.566 1456.08 345.245C1493.12 325.919 1524.01 302.4 1553.89 279.653C1572.67 265.353 1590.41 251.848 1609.33 239.531L1613.22 236.991C1634.05 223.417 1655.59 209.382 1679.17 196.992C1714.02 178.6 1767.2 158.117 1822.63 164.969C1837.07 166.755 1851.41 170.002 1866.48 174.9C1898.53 185.244 1927.85 201.681 1956.21 217.579C1963.06 221.423 1970.16 225.399 1977.04 229.143C2009.29 246.677 2040.98 266.027 2071.24 286.658C2133.81 329.234 2193.68 379.427 2254.3 440.105L2253.76 440.299Z" fill="#FFE492"/>
<path d="M2251.55 424.306C2195.91 362.732 2135.28 310.192 2071.34 268.151C2040.26 247.661 2007.32 228.925 1973.45 212.463C1968.56 210.086 1963.55 207.618 1958.7 205.232C1926.69 189.468 1893.59 173.165 1858.33 164.227C1843.19 160.351 1828.86 157.984 1814.52 156.989C1759.5 153.177 1709.65 175.492 1677.53 194.883C1657.57 206.863 1639.57 220.186 1622.15 233.07C1619.14 235.3 1616.13 237.526 1613.11 239.742C1596.55 251.92 1581.06 265.525 1564.66 279.926C1536.79 304.409 1507.96 329.725 1471.1 350.197C1449.45 362.219 1426.76 371.513 1401.71 378.615C1349.32 393.467 1296.97 398.964 1252.67 402.385C1222.7 404.696 1191.57 405.709 1160.14 405.387C1134.1 405.09 1108.29 403.851 1083.42 401.707C1009.67 395.365 939.565 379.629 875.045 354.937C848.199 344.665 820.737 332.052 791.084 316.376C761.131 300.579 733.219 285.379 706.222 270.678C687.876 260.686 670.545 251.249 653.621 242.195C589.647 207.968 531.049 177.876 461.729 156.245C421.124 143.577 377.563 133.829 332.253 127.276C299.779 122.578 265.066 120.291 223.014 120.073C213.942 120.033 204.701 120.097 195.552 120.264C181.655 120.535 167.277 121.101 152.06 121.702C122.858 122.853 89.7538 124.158 54.0955 123.428C40.5166 123.148 26.6629 122.754 13.2636 122.371C-21.2002 121.387 -56.8365 120.37 -90.4099 121.279C-115.065 121.948 -138.383 124.044 -159.708 127.509C-235.622 139.847 -292.807 164.298 -312.681 192.913L-313.358 192.744C-308.155 185.25 -300.446 177.99 -290.447 171.164C-280.844 164.608 -269.075 158.416 -255.474 152.761C-229.265 141.864 -196.22 132.986 -159.905 127.084C-138.53 123.61 -115.16 121.508 -90.4502 120.839C-56.8401 119.927 -21.1892 120.947 13.2929 121.931C26.6886 122.314 40.5422 122.708 54.1175 122.987C89.7428 123.718 122.822 122.415 152.009 121.264C167.233 120.663 181.614 120.097 195.527 119.826C204.687 119.659 213.935 119.595 223.018 119.635C265.129 119.85 299.893 122.144 332.422 126.848C377.786 133.411 421.406 143.169 462.062 155.856C493.375 165.625 525.106 178.003 559.068 193.695C589.472 207.741 619.047 223.111 654.105 241.867C671.029 250.923 688.36 260.36 706.709 270.352C733.702 285.051 761.615 300.251 791.561 316.046C821.184 331.706 848.617 344.307 875.43 354.567C939.862 379.227 1009.87 394.94 1083.51 401.273C1108.36 403.415 1134.14 404.652 1160.14 404.949C1191.54 405.271 1222.64 404.26 1252.56 401.949C1296.81 398.535 1349.1 393.044 1401.39 378.218C1426.37 371.137 1449.01 361.867 1470.6 349.876C1507.39 329.439 1536.2 304.143 1564.05 279.679C1580.46 265.269 1595.95 251.658 1612.54 239.467C1615.55 237.251 1618.56 235.025 1621.57 232.797C1639 219.904 1657.02 206.573 1676.99 194.577C1697.9 181.961 1719.34 172.256 1740.73 165.731C1766.07 158.002 1790.92 154.916 1814.59 156.558C1829 157.557 1843.4 159.935 1858.6 163.827C1893.95 172.788 1927.1 189.111 1959.15 204.895C1964 207.281 1969.01 209.749 1973.89 212.124C2007.79 228.599 2040.75 247.353 2071.86 267.858C2105.81 290.182 2139.06 315.616 2170.68 343.455C2198.63 368.059 2226.05 395.193 2252.17 424.099L2251.55 424.306Z" fill="#FFE492"/>
<path d="M2249.33 408.308C2197.84 344.969 2138.15 291.502 2071.92 249.393C2039.98 229.032 2005.79 210.902 1970.29 195.501C1968.6 194.768 1966.91 194.035 1965.22 193.3C1928.3 177.265 1890.13 160.685 1850.49 153.22C1835.13 150.328 1820.75 148.828 1806.55 148.635C1751.75 147.891 1705.02 172.07 1675.47 192.483C1658.08 204.426 1642.64 217.515 1627.71 230.173C1624.02 233.303 1620.2 236.539 1616.44 239.691C1602.09 251.697 1588.75 265.348 1574.62 279.802C1548.94 306.093 1522.38 333.277 1485.71 354.859C1464.49 367.345 1441.61 376.71 1415.76 383.49C1364.84 396.846 1313.13 400.352 1264.84 402.153C1235.06 403.263 1203.94 403.073 1172.34 401.592C1146.4 400.337 1120.75 398.191 1096.11 395.214C1024.87 386.629 955.694 368.9 890.507 342.516C864.401 331.952 837.705 319.391 806.499 302.987C747.189 271.895 703.148 249.996 663.701 231.982C585.243 196.155 525.362 175.077 463.48 161.504C422.051 152.417 378.534 146.171 334.129 142.94C303.322 140.699 270.628 140.899 228.125 143.596C219.416 144.155 210.505 144.813 201.638 145.555C193.262 146.266 184.754 147.081 175.745 147.941C142.479 151.122 104.773 154.728 61.6176 154.054C38.8714 153.7 15.6378 152.729 -6.82999 151.791C-32.3645 150.726 -58.7675 149.623 -83.8001 149.473C-108.899 149.324 -132.359 150.53 -153.512 153.062C-229.174 162.111 -289.154 182.155 -313.956 206.675L-314.659 206.418C-308.218 200.047 -299.439 193.93 -288.568 188.235C-278.074 182.736 -265.58 177.604 -251.429 172.979C-223.942 163.993 -190.137 156.936 -153.673 152.575C-132.462 150.039 -108.95 148.828 -83.7928 148.978C-58.7382 149.128 -32.3206 150.231 -6.77499 151.298C15.6855 152.236 38.908 153.207 61.636 153.561C104.714 154.233 142.38 150.631 175.609 147.455C184.623 146.592 193.138 145.78 201.517 145.066C210.395 144.324 219.313 143.666 228.03 143.105C270.599 140.406 303.348 140.204 334.221 142.451C378.688 145.687 422.267 151.941 463.755 161.041C525.721 174.633 585.664 195.733 664.192 231.59C703.653 249.611 747.71 271.516 807.034 302.617C838.218 319.008 864.885 331.556 890.962 342.109C956.061 368.455 1025.13 386.16 1096.26 394.732C1120.87 397.704 1146.49 399.846 1172.4 401.101C1203.96 402.58 1235.04 402.769 1264.78 401.662C1313 399.864 1364.62 396.366 1415.43 383.041C1441.18 376.287 1463.98 366.954 1485.12 354.511C1521.71 332.976 1548.25 305.82 1573.91 279.558C1588.04 265.095 1601.39 251.433 1615.76 239.41C1619.53 236.259 1623.35 233.023 1627.03 229.893C1641.97 217.224 1657.42 204.126 1674.84 192.164C1694.12 178.842 1714.34 168.304 1734.93 160.841C1759.05 152.1 1783.15 147.831 1806.56 148.146C1820.85 148.34 1835.29 149.848 1850.73 152.753C1890.5 160.245 1928.73 176.847 1965.7 192.906C1967.39 193.641 1969.08 194.377 1970.77 195.107C2006.31 210.526 2040.54 228.678 2072.51 249.06C2138.8 291.207 2198.54 344.715 2250.07 408.099L2249.33 408.308Z" fill="#FFE492"/>
<path d="M1283.07 401.925C1281.01 401.925 1278.99 401.923 1276.99 401.916C1247.37 401.841 1216.26 400.454 1184.54 397.791C1158.69 395.578 1133.2 392.525 1108.79 388.719C1073.91 383.29 1038.9 375.489 1004.73 365.532C971.739 355.917 938.51 343.994 905.966 330.092C874.078 316.473 844.293 301.297 821.906 289.596C769.525 262.295 719.687 239.476 673.777 221.771C599.419 193.096 533.155 175.615 465.235 166.759C424.261 161.416 380.3 158.599 337.973 158.599C337.317 158.599 336.665 158.599 336.009 158.601C299.647 158.676 265.125 162.735 233.24 167.111C224.941 168.258 216.357 169.511 207.724 170.838C202.994 171.573 198.256 172.331 193.244 173.132C157.89 178.792 117.816 185.204 69.1325 184.678C39.4832 184.357 9.20007 182.512 -20.0865 180.727C-38.9965 179.573 -58.5477 178.382 -77.1976 177.662C-102.835 176.674 -126.427 176.991 -147.327 178.609C-222.586 184.429 -285.362 200.068 -315.256 220.443L-315.945 220.08C-300.611 209.63 -277.546 200.583 -247.391 193.186C-218.592 186.124 -184.029 180.894 -147.444 178.065C-126.49 176.445 -102.835 176.124 -77.1389 177.116C-58.4707 177.836 -38.9085 179.029 -19.9912 180.183C9.27701 181.968 39.5418 183.813 69.1508 184.132C117.71 184.658 157.714 178.254 193.009 172.606C198.026 171.802 202.763 171.045 207.497 170.31C216.137 168.982 224.729 167.728 233.035 166.581C264.974 162.198 299.556 158.132 336.005 158.055C379.006 157.965 423.755 160.791 465.43 166.226C500.483 170.798 534.467 177.528 569.316 186.8C602.878 195.731 637.21 207.019 674.268 221.313C720.215 239.031 770.089 261.868 822.503 289.187C844.872 300.881 874.635 316.046 906.49 329.65C972.527 357.858 1040.67 377.554 1109.02 388.193C1133.4 391.994 1158.85 395.043 1184.67 397.253C1216.35 399.913 1247.41 401.3 1276.99 401.372C1323.28 401.487 1377.03 400.549 1429.46 387.858C1455.99 381.435 1478.95 372.041 1499.64 359.144C1535.98 336.492 1560.06 307.419 1583.36 279.301C1595.35 264.838 1606.67 251.176 1618.97 239.351C1622.92 235.562 1626.9 231.659 1630.74 227.884C1643.74 215.129 1657.18 201.943 1672.67 189.754C1690.36 175.732 1709.35 164.357 1729.11 155.948C1752.01 146.198 1775.36 140.743 1798.5 139.735C1812.79 139.112 1827.29 139.748 1842.83 141.681C1884.38 146.846 1925.57 161.85 1967.62 178.089C2004.28 192.248 2040.77 210.288 2073.14 230.261C2109.1 252.383 2142.89 278.334 2173.56 307.394C2200.88 333.284 2225.91 361.783 2247.95 392.1L2247.11 392.32C2199.78 327.213 2141.03 272.818 2072.49 230.647C2040.16 210.702 2003.73 192.689 1967.13 178.554C1925.15 162.343 1884.04 147.367 1842.64 142.221C1827.19 140.299 1812.77 139.667 1798.57 140.286C1756.04 142.141 1711.59 159.827 1673.4 190.089C1657.94 202.256 1644.51 215.431 1631.52 228.172C1627.68 231.95 1623.69 235.855 1619.75 239.643C1607.47 251.447 1596.15 265.098 1584.18 279.547C1572.75 293.343 1560.93 307.61 1547.37 321.325C1531.99 336.873 1516.6 349.368 1500.3 359.527C1479.52 372.482 1456.46 381.917 1429.8 388.371C1406.29 394.064 1381.02 397.826 1352.55 399.878C1328.43 401.606 1304.22 401.925 1283.07 401.925Z" fill="#FFE492"/>
<path d="M1341.82 403.027C1323.14 403.027 1305.19 402.358 1289.14 401.68C1259.62 400.434 1228.52 397.848 1196.73 393.991C1170.98 390.823 1145.66 386.865 1121.45 382.222C1055.18 369.536 989.74 348.418 921.41 317.668C891.61 304.259 863.518 289.832 837.306 276.205C785.555 249.382 733.929 227.633 683.853 211.558C610.206 187.918 541.301 175.351 467.002 172.009C424.667 170.105 380.025 170.882 337.896 174.254C302.633 177.076 269.39 183.887 238.356 190.619C230.591 192.312 222.333 194.161 213.814 196.114C211.685 196.605 209.538 197.104 207.362 197.608C171.619 205.912 131.176 215.307 79.271 215.307C78.3953 215.307 77.5233 215.305 76.6403 215.298C41.5243 215.085 5.67178 212.073 -29.0045 209.159C-42.7519 208.003 -56.9683 206.81 -70.6095 205.844C-97.2543 203.959 -120.33 203.402 -141.16 204.146C-216.921 206.854 -280.869 217.808 -316.601 234.206L-317.213 233.724C-299.549 225.618 -274.007 218.581 -243.357 213.372C-213.21 208.25 -177.892 204.851 -141.223 203.541C-120.334 202.795 -97.1993 203.352 -70.4959 205.24C-56.8401 206.207 -42.62 207.402 -28.869 208.556C5.77438 211.466 41.5939 214.475 76.6439 214.689C129.629 215.014 170.732 205.463 206.992 197.038C209.164 196.534 211.315 196.034 213.444 195.541C221.97 193.586 230.232 191.737 238.004 190.045C269.089 183.3 302.395 176.48 337.753 173.649C379.948 170.272 424.664 169.493 467.068 171.399C503.887 173.054 538.992 176.964 574.387 183.348C610.84 189.923 646.799 198.973 684.318 211.019C734.457 227.115 786.149 248.891 837.954 275.741C864.156 289.363 892.23 303.782 922.004 317.177C990.242 347.886 1055.58 368.972 1121.75 381.639C1145.92 386.273 1171.21 390.226 1196.92 393.39C1228.67 397.242 1259.72 399.827 1289.2 401.068C1338.8 403.159 1391.57 404.234 1443.48 392.661C1470.8 386.57 1493.91 377.117 1514.15 363.762C1550.19 339.972 1572.63 307.522 1592.42 278.891C1602.38 264.485 1611.79 250.879 1622.17 239.28C1625.92 235.095 1629.69 230.769 1633.33 226.587C1644.74 213.5 1656.53 199.968 1670.48 187.33C1686.63 172.608 1704.39 160.397 1723.28 151.037C1744.97 140.287 1767.56 133.648 1790.43 131.308C1804.73 129.844 1819.28 129.611 1834.92 130.588C1878.61 133.325 1923 146.845 1964.46 161.051C2002.75 174.166 2040.54 191.592 2073.77 211.444C2110.73 233.462 2144.78 259.673 2174.98 289.345C2201.98 315.88 2225.82 345.061 2245.83 376.083L2244.89 376.301C2202.36 310.361 2142.94 253.503 2073.06 211.871C2039.9 192.057 2002.18 174.664 1963.97 161.574C1922.6 147.402 1878.33 133.915 1834.82 131.189C1819.27 130.216 1804.81 130.45 1790.61 131.902C1748.38 136.224 1706.02 156.025 1671.33 187.66C1657.4 200.272 1645.62 213.79 1634.23 226.864C1630.59 231.049 1626.82 235.375 1623.07 239.564C1612.71 251.136 1603.31 264.73 1593.36 279.12C1573.53 307.795 1551.06 340.298 1514.89 364.167C1494.55 377.595 1471.3 387.1 1443.83 393.227C1420 398.541 1394.28 401.618 1365.21 402.629C1357.36 402.915 1349.53 403.027 1341.82 403.027Z" fill="#FFE492"/>
<path d="M1378.7 405.411C1378.43 405.411 1378.17 405.411 1377.9 405.411C1351.5 405.372 1325.58 403.43 1301.28 401.445C1271.81 399.036 1240.73 395.248 1208.92 390.189C1183.29 386.07 1158.13 381.203 1134.13 375.726C1070.5 361.226 1007.82 338.832 936.865 305.246C911.312 293.154 886.166 280.133 861.844 267.543C858.803 265.967 855.758 264.393 852.713 262.819C800.695 236.002 747.277 215.321 693.947 201.351C620.92 182.223 547.269 174.342 468.786 177.259C425.752 178.86 381.15 183.234 339.801 189.908C307.177 195.176 278.106 203.627 243.489 214.127C236.472 216.265 228.979 218.572 219.914 221.39L219.409 221.548C201.92 227.021 182.098 233.222 159.865 237.937C134.33 243.353 109.558 245.959 84.1548 245.928C44.5431 245.869 4.11792 241.44 -34.9735 237.154C-44.5513 236.103 -54.4588 235.018 -64.0219 234.036C-91.4471 231.225 -114.662 229.805 -134.994 229.698C-209.857 229.301 -276.55 235.967 -317.968 247.982L-318.444 247.388C-298.157 241.501 -270.79 236.724 -239.305 233.572C-207.762 230.413 -171.686 228.846 -134.983 229.039C-114.593 229.147 -91.3189 230.569 -63.835 233.387C-54.2646 234.369 -44.3571 235.454 -34.7757 236.504C4.26816 240.784 44.642 245.208 84.1585 245.268C84.3344 245.268 84.5139 245.268 84.6898 245.268C141.215 245.268 184.278 231.795 218.903 220.963L219.412 220.804C228.481 217.984 235.974 215.677 242.994 213.54C277.67 203.022 306.792 194.555 339.519 189.272C380.937 182.584 425.612 178.204 468.72 176.601C507.126 175.175 543.352 176.262 579.476 179.929C618.402 183.881 655.992 190.69 694.387 200.748C747.819 214.744 801.329 235.458 853.431 262.319C856.476 263.893 859.521 265.469 862.562 267.046C886.873 279.631 912.012 292.647 937.542 304.731C1008.4 338.275 1070.99 360.638 1134.52 375.114C1158.48 380.585 1183.61 385.443 1209.2 389.557C1240.97 394.609 1272 398.391 1301.43 400.795C1354.15 405.105 1405.75 408.095 1457.53 397.493C1485.62 391.739 1508.9 382.227 1528.67 368.411C1564.39 343.454 1583.91 308.873 1601.13 278.361C1609.19 264.076 1616.8 250.582 1625.39 239.243C1628.7 234.88 1632.01 230.367 1635.22 226.001C1645.24 212.353 1655.61 198.242 1668.32 184.937C1682.95 169.508 1699.49 156.459 1717.46 146.152C1737.96 134.406 1759.79 126.586 1782.37 122.914C1796.37 120.638 1810.66 119.529 1826.01 119.529C1826.34 119.529 1826.68 119.529 1827.01 119.531C1874.74 119.681 1923.86 132.708 1961.32 144.041C2001.22 156.115 2040.33 172.925 2074.41 192.653C2112.37 214.57 2146.7 241.039 2176.42 271.327C2203.09 298.507 2225.74 328.373 2243.72 360.099L2242.68 360.312C2215.92 313.107 2164.86 245.785 2073.65 193.131C2039.65 173.446 2000.63 156.677 1960.82 144.631C1923.47 133.329 1874.51 120.339 1827.01 120.191C1811.37 120.136 1796.87 121.241 1782.66 123.553C1740.83 130.357 1700.56 152.274 1669.27 185.265C1656.59 198.54 1646.24 212.635 1636.22 226.268C1633.02 230.635 1629.7 235.15 1626.39 239.516C1617.83 250.826 1610.22 264.303 1602.17 278.572C1584.92 309.14 1565.37 343.787 1529.51 368.84C1509.6 382.749 1486.17 392.324 1457.88 398.116C1433.91 403.023 1408 405.411 1378.7 405.411Z" fill="#FFE492"/>
<path d="M1408.03 408.511C1402.34 408.511 1396.53 408.4 1390.58 408.18C1364.53 407.218 1339.22 404.332 1313.43 401.206C1283.53 397.583 1253.33 392.736 1221.11 386.387C1195.61 381.319 1170.61 375.548 1146.8 369.227C1086.39 353.219 1026.41 329.654 952.32 292.821C933.919 283.674 915.526 274.081 897.737 264.802C888.053 259.752 878.043 254.528 868.124 249.428C815.487 222.431 760.285 202.821 704.049 191.141C629.746 175.707 553.381 172.88 470.581 182.5C426.837 187.583 382.275 195.554 341.718 205.551C309.137 213.581 280.756 224.859 250.707 236.799L248.63 237.624C243.936 239.495 239.191 241.393 234.388 243.312C231.621 244.42 228.836 245.534 226.026 246.656C208.505 253.694 189.58 261.036 167.878 266.686C142.681 273.246 117.758 276.474 91.6774 276.553C48.2588 276.681 3.97174 270.618 -38.8534 264.749C-44.9649 263.911 -51.2891 263.045 -57.4263 262.224C-86.1999 258.372 -108.884 256.155 -128.823 255.244C-202.404 251.882 -271.845 254.251 -319.345 261.744L-319.649 261.053C-272.024 253.54 -202.441 251.163 -128.732 254.531C-108.737 255.444 -85.9947 257.667 -57.1662 261.526C-51.0252 262.35 -44.7011 263.215 -38.5859 264.054C3.71524 269.85 47.4417 275.84 90.2851 275.84C90.7468 275.84 91.2085 275.84 91.6738 275.837C147.089 275.67 186.535 261.656 225.37 246.062C228.181 244.939 230.965 243.825 233.732 242.718C238.535 240.796 243.276 238.901 247.974 237.028L250.051 236.202C280.151 224.242 308.58 212.945 341.267 204.888C381.897 194.872 426.536 186.888 470.358 181.796C553.366 172.152 629.937 174.987 704.441 190.463C760.816 202.174 816.146 221.827 868.901 248.884C878.819 253.987 888.833 259.208 898.517 264.261C916.299 273.537 934.688 283.128 953.078 292.268C1027.08 329.059 1086.98 352.592 1147.28 368.574C1171.06 374.883 1196.02 380.648 1221.48 385.707C1253.65 392.047 1283.81 396.887 1313.67 400.504C1358.99 405.997 1415.4 412.834 1471.57 402.303C1500.45 396.89 1523.88 387.318 1543.19 373.04C1578.57 346.888 1594.97 310.106 1609.45 277.656C1615.74 263.558 1621.68 250.242 1628.61 239.192C1631.31 234.886 1634.02 230.432 1636.63 226.124C1645.41 211.677 1654.49 196.739 1666.15 182.531C1679.3 166.384 1694.61 152.496 1711.64 141.251C1730.94 128.51 1752.03 119.513 1774.3 114.509C1788.6 111.298 1803.25 109.319 1819.1 108.458C1840.32 107.304 1862.91 108.537 1888.16 112.218C1909.52 115.335 1932.42 120.173 1958.17 127.013C1999.7 138.044 2040.11 154.239 2075.04 173.847C2114.02 195.66 2148.61 222.391 2177.85 253.293C2204.18 281.121 2225.64 311.671 2241.61 344.099L2240.47 344.302C2206.74 275.84 2147.7 215.49 2074.23 174.371C2039.39 154.816 1999.09 138.667 1957.68 127.669C1902.2 112.933 1858.21 107.053 1819.21 109.171C1803.46 110.025 1788.92 111.991 1774.72 115.179C1721.72 127.081 1687 158.547 1667.22 182.846C1655.59 197.018 1646.52 211.939 1637.75 226.369C1635.13 230.679 1632.42 235.135 1629.72 239.443C1622.81 250.46 1616.88 263.761 1610.6 277.841C1596.1 310.361 1579.66 347.221 1544.11 373.491C1524.65 387.882 1501.03 397.53 1471.92 402.987C1452.19 406.686 1431.15 408.511 1408.03 408.511Z" fill="#FFE492"/>
<path d="M1433.43 412.064C1394.68 412.064 1357.43 406.083 1325.56 400.967C1295.58 396.155 1265.4 390.141 1233.28 382.583C1207.93 376.574 1183.09 369.895 1159.46 362.729C1088.62 341.275 1025.46 310.48 967.767 280.397C955.987 274.255 944.086 267.924 932.581 261.802C916.606 253.3 900.085 244.51 883.531 236.04C830.106 208.776 773.119 190.234 714.158 180.929C637.884 168.894 558.796 171.12 472.376 187.735C427.88 196.29 383.363 207.858 343.634 221.189C312.991 231.47 287.065 244.449 259.618 258.19C257.672 259.163 255.723 260.14 253.762 261.117L252.7 261.65C246.028 264.994 239.128 268.45 232.134 271.919C215.375 280.269 196.919 288.905 175.572 295.502C150.792 303.161 125.811 306.98 99.192 307.178C52.4684 307.528 4.84705 299.637 -41.2024 292.004C-44.4304 291.47 -47.6437 290.937 -50.8424 290.411C-81.2099 285.405 -103.363 282.437 -122.665 280.786C-194.399 274.653 -266.595 272.725 -320.742 275.497L-320.852 274.728C-266.617 271.95 -194.315 273.881 -122.485 280.023C-103.128 281.678 -80.9277 284.652 -50.5053 289.667C-47.3066 290.193 -44.0933 290.725 -40.8616 291.263C5.09985 298.879 52.6296 306.751 99.1737 306.408C156.981 305.976 197.692 288.073 231.313 271.325C238.308 267.856 245.207 264.4 251.879 261.058L252.942 260.525C254.902 259.546 256.851 258.57 258.797 257.597C286.292 243.832 312.262 230.831 343.007 220.516C382.809 207.16 427.411 195.572 471.984 187.002C512.955 179.126 551.439 174.578 589.629 173.099C632.23 171.45 674.235 173.834 714.48 180.185C773.629 189.518 830.784 208.113 884.359 235.452C900.924 243.927 917.449 252.719 933.428 261.223C944.933 267.345 956.826 273.674 968.602 279.813C1026.24 309.864 1089.32 340.626 1160.03 362.04C1183.63 369.195 1208.43 375.865 1233.75 381.866C1265.81 389.412 1295.95 395.417 1325.89 400.223C1371.86 407.602 1429.07 416.786 1485.6 407.122C1515.26 402.05 1538.84 392.419 1557.69 377.679C1592.71 350.296 1605.81 311.251 1617.37 276.8C1622.01 262.958 1626.4 249.884 1631.81 239.148C1633.81 235.177 1635.82 231.073 1637.76 227.104C1645.36 211.58 1653.22 195.526 1663.96 180.132C1675.66 163.254 1689.73 148.523 1705.79 136.351C1723.91 122.617 1744.24 112.443 1766.21 106.109C1780.48 101.997 1795.18 99.1465 1811.16 97.392C1832.69 95.03 1856.58 95.1092 1882.17 97.6276C1904.57 99.8333 1929.07 103.992 1954.99 109.99C1998.14 119.978 2039.86 135.557 2075.66 155.043C2115.65 176.755 2150.51 203.744 2179.27 235.262C2205.25 263.737 2225.52 294.974 2239.49 328.104L2238.24 328.294C2208.64 258.093 2150.6 196.767 2074.8 155.615C2039.12 136.193 1997.53 120.665 1954.53 110.71C1898.79 97.8081 1851.97 93.6982 1811.39 98.1515C1795.53 99.8927 1780.93 102.724 1766.77 106.805C1714.49 121.873 1682.65 155.158 1665.15 180.429C1654.43 195.783 1646.58 211.816 1638.99 227.32C1637.05 231.289 1635.04 235.395 1633.04 239.37C1627.65 250.071 1623.26 263.127 1618.63 276.952C1613.06 293.526 1606.76 312.31 1597.61 329.92C1587.13 350.098 1574.4 365.873 1558.71 378.148C1549.64 385.245 1539.21 391.285 1527.71 396.102C1515.35 401.282 1501.3 405.24 1485.95 407.864C1468.38 410.868 1450.75 412.064 1433.43 412.064Z" fill="#FFE492"/>
<path d="M1456.33 415.962C1443.52 415.962 1430.1 415.213 1415.92 413.719C1388 410.776 1361.28 405.435 1337.7 400.726C1307.98 394.789 1276.94 387.404 1245.46 378.777C1220.27 371.834 1195.6 364.248 1172.12 356.226C1104.75 333.229 1046.71 302.65 983.214 267.97C977.572 264.888 971.841 261.744 966.301 258.702C944.482 246.729 921.923 234.348 898.938 222.65C844.626 195.068 785.859 177.595 724.267 170.718C646.575 162.043 562.427 169.528 474.172 192.968C428.884 204.996 384.407 220.159 345.55 236.821C316.293 249.366 292.209 264.157 266.711 279.817C264.121 281.409 261.519 283.005 258.903 284.607C252.392 288.601 245.379 292.887 238.245 297.177C223.285 306.205 205.053 316.492 183.27 324.313C158.886 333.07 133.843 337.484 106.714 337.803C57.052 338.391 6.49951 328.511 -42.3895 318.957L-44.2509 318.594C-68.1879 313.918 -93.51 309.194 -116.498 306.326C-186.569 297.584 -259.596 291.515 -322.123 289.237L-322.039 288.414C-259.446 290.694 -186.353 296.768 -116.22 305.518C-93.1656 308.395 -67.7995 313.126 -43.8258 317.808L-41.9645 318.171C6.8183 327.703 57.2682 337.559 106.689 336.975C163.763 336.302 203.181 317.168 237.274 296.589C244.408 292.301 251.414 288.015 257.925 284.024C260.541 282.424 263.142 280.826 265.733 279.236C291.275 263.549 315.402 248.732 344.755 236.145C383.685 219.45 428.247 204.258 473.618 192.208C515.026 181.212 555.773 173.635 594.722 169.69C639.225 165.184 682.896 165.255 724.523 169.902C786.35 176.805 845.334 194.339 899.829 222.016C922.831 233.725 945.402 246.11 967.232 258.09C972.772 261.13 978.503 264.274 984.145 267.355C1047.58 302.003 1105.56 332.548 1172.81 355.506C1196.25 363.515 1220.89 371.09 1246.04 378.024C1277.48 386.638 1308.46 394.012 1338.14 399.94C1384.66 409.235 1442.56 420.798 1499.65 411.938C1530.1 407.212 1553.84 397.523 1572.22 382.316C1606.85 353.666 1616.87 310.482 1624.92 275.782C1628.06 262.266 1631.02 249.5 1635.03 239.11C1636.3 235.834 1637.58 232.46 1638.81 229.195C1645.22 212.236 1651.86 194.698 1661.81 177.739C1677.17 151.347 1706.35 116.041 1758.14 97.7195C1772.45 92.6608 1787.2 88.9362 1803.25 86.3342C1845.24 79.4285 1895.23 81.6629 1951.84 92.9712C1996.61 101.915 2039.64 116.878 2076.3 136.243C2117.3 157.852 2152.43 185.1 2180.71 217.237C2193.69 231.978 2205.15 247.722 2214.8 264.031C2224.01 279.61 2231.61 295.788 2237.38 312.116L2236.04 312.287C2210.59 240.343 2153.53 178.042 2075.39 136.862C2038.87 117.569 1996 102.664 1951.4 93.7527C1895.06 82.495 1845.33 80.2672 1803.61 87.1288C1787.68 89.711 1773.03 93.4071 1758.84 98.4284C1707.41 116.623 1678.39 151.747 1663.1 178.009C1653.18 194.924 1646.56 212.438 1640.15 229.376C1638.91 232.64 1637.64 236.017 1636.37 239.295C1632.37 249.65 1629.41 262.398 1626.28 275.895C1622.23 293.356 1617.64 313.146 1609.79 331.824C1600.77 353.287 1588.84 369.963 1573.33 382.801C1564.48 390.125 1554.12 396.302 1542.56 401.158C1530.1 406.39 1515.78 410.287 1499.99 412.735C1486.14 414.888 1471.67 415.962 1456.33 415.962Z" fill="#FFE492"/>
<path d="M1477.44 420.079C1462.08 420.079 1445.89 418.884 1428.6 416.486C1400.58 412.605 1373.62 406.164 1349.83 400.48C1319.88 393.326 1288.87 384.743 1257.64 374.967C1232.62 367.097 1208.1 358.604 1184.79 349.722C1120.62 325.298 1065.59 293.818 1007.32 260.494C1004.44 258.846 1001.56 257.195 998.665 255.544C971.57 240.064 943.555 224.055 914.349 209.262C859.092 181.329 798.544 164.925 734.387 160.505C653.8 154.951 566.857 167.633 475.967 198.194C430.504 213.48 384.868 232.749 347.466 252.448C319.224 267.323 296.573 284.06 272.592 301.781C269.752 303.879 266.905 305.983 264.036 308.092C258.305 312.312 251.487 317.316 244.349 322.434C231.129 331.937 213.117 344.014 190.964 353.099C166.969 362.941 141.87 367.958 114.232 368.431C91.5155 368.772 66.4463 366.665 37.5884 361.988C12.8123 357.972 -11.1541 352.724 -37.6743 346.781C-61.8824 341.288 -87.4317 335.615 -110.354 331.869C-178.252 320.77 -249.971 311.051 -323.516 302.976L-323.252 302.111C-249.664 310.188 -177.904 319.915 -109.969 331.019C-86.9847 334.777 -61.3988 340.458 -37.1613 345.955C7.29065 355.921 62.6137 368.327 114.192 367.55C173.161 366.538 211.058 344.995 243.224 321.866C250.358 316.752 257.173 311.751 262.9 307.533C265.769 305.424 268.616 303.319 271.452 301.224C295.473 283.474 318.165 266.709 346.499 251.786C383.978 232.046 429.701 212.741 475.252 197.426C566.417 166.772 653.661 154.057 734.555 159.631C765.571 161.768 796.037 166.732 825.101 174.384C856.285 182.593 886.63 194.104 915.294 208.591C944.533 223.399 972.567 239.417 999.677 254.907C1002.57 256.561 1005.45 258.209 1008.34 259.858C1066.55 293.154 1121.53 324.602 1185.57 348.98C1208.86 357.849 1233.33 366.331 1258.32 374.188C1289.5 383.948 1320.47 392.52 1350.37 399.664C1397.37 410.891 1455.86 424.863 1513.69 416.759C1545.02 412.37 1568.91 402.622 1586.73 386.962C1621.05 357.05 1627.16 311.357 1632.07 274.642C1633.83 261.511 1635.49 249.109 1638.24 239.08C1638.81 237.01 1639.38 234.93 1639.95 232.839C1645.08 213.949 1650.4 194.414 1659.63 175.351C1672.82 147.931 1699.2 110.75 1750.06 89.3351C1764.25 83.3607 1779.05 78.7642 1795.32 75.2817C1817.93 70.3969 1843.13 68.1009 1870.21 68.4531C1894.93 68.7745 1921.33 71.2995 1948.67 75.9553C1995.05 83.8516 2039.4 98.1978 2076.92 117.442C2118.93 138.945 2154.33 166.457 2182.14 199.211C2194.9 214.24 2205.94 230.307 2214.97 246.967C2223.62 262.922 2230.45 279.463 2235.26 296.13L2233.82 296.28C2212.84 223.655 2155.3 158.715 2075.97 118.111C2038.61 98.9506 1994.45 84.6639 1948.27 76.7984C1891.32 67.0993 1838.61 66.8615 1795.81 76.1072C1779.66 79.5633 1764.97 84.1245 1750.9 90.0528C1700.39 111.32 1674.15 148.309 1661.04 175.593C1651.83 194.606 1646.52 214.112 1641.39 232.978C1640.82 235.069 1640.25 237.151 1639.69 239.221C1636.94 249.212 1635.29 261.599 1633.53 274.711C1628.6 311.53 1622.47 357.356 1587.93 387.459C1579.34 395.008 1569.07 401.326 1557.41 406.233C1544.86 411.511 1530.26 415.342 1514.02 417.618C1502.3 419.256 1490.16 420.079 1477.44 420.079Z" fill="#FFE492"/>
<path d="M1497.27 424.365C1479.77 424.365 1461.24 422.666 1441.27 419.254C1413.01 414.426 1385.88 406.887 1361.95 400.236C1331.71 391.832 1300.71 382.047 1269.81 371.159C1244.97 362.375 1220.62 352.973 1197.44 343.219C1140.36 319.207 1091.59 289.79 1039.94 258.646C1031.5 253.554 1022.77 248.29 1014.11 243.115C983.658 224.932 957.658 209.939 929.749 195.874C873.507 167.571 811.182 152.235 744.5 150.289C660.711 147.843 570.961 165.718 477.748 203.416C431.442 222.145 385.847 245.105 349.365 268.07C321.881 285.37 300.395 304.203 277.649 324.14C274.831 326.61 272.002 329.089 269.155 331.57C264.084 335.997 257.372 341.83 250.443 347.679C221.285 372.352 183.19 397.753 121.741 399.052C119.825 399.09 117.901 399.107 115.981 399.107C67.9969 399.107 19.0089 387.698 -31.1075 374.958L-34.2366 374.157C-59.0604 367.791 -82.5101 361.779 -104.216 357.403C-186.015 340.91 -265.125 326.989 -324.907 316.704L-324.479 315.804C-264.682 326.093 -185.55 340.016 -103.721 356.515C-81.9569 360.903 -58.4815 366.923 -33.6248 373.296L-30.4993 374.098C21.4529 387.303 72.1886 399.083 121.686 398.119C182.454 396.833 220.23 371.628 249.172 347.14C256.097 341.295 262.802 335.466 267.873 331.041C270.72 328.558 273.545 326.082 276.363 323.612C299.145 303.643 320.664 284.78 348.236 267.425C384.792 244.412 430.479 221.405 476.876 202.639C519.939 185.222 563.017 171.849 604.912 162.887C652.98 152.604 699.971 148.052 744.573 149.353C811.599 151.308 874.24 166.719 930.746 195.154C958.695 209.241 984.721 224.25 1015.2 242.448C1023.86 247.623 1032.59 252.889 1041.04 257.981C1092.63 289.095 1141.37 318.483 1198.33 342.447C1221.48 352.19 1245.79 361.576 1270.59 370.346C1301.45 381.221 1332.4 390.991 1362.6 399.382C1410.01 412.557 1469.01 428.953 1527.73 421.572C1559.82 417.537 1583.87 407.732 1601.23 391.598C1635.11 360.324 1637.15 312.059 1638.79 273.278C1639.32 260.625 1639.83 248.671 1641.45 239.04L1641.48 238.82C1645.11 217.254 1648.85 194.954 1657.45 172.951C1664.89 153.76 1675.25 136.506 1688.25 121.664C1702.91 104.932 1720.98 91.2308 1741.96 80.9395C1756 74.0537 1770.86 68.5833 1787.37 64.218C1831.99 52.355 1886.66 50.5234 1945.49 58.926C1969.16 62.3073 1992.51 67.4298 2014.9 74.1483C2037.41 80.9065 2058.49 89.1461 2077.54 98.6339C2120.57 120.033 2156.24 147.805 2183.56 181.18C2208.12 211.178 2225.26 245.398 2233.14 280.137L2231.6 280.263C2214.74 205.91 2158.23 139.971 2076.54 99.3538C2038.35 80.3297 1992.9 66.6637 1945.13 59.8417C1886.64 51.4876 1832.31 53.2993 1788.01 65.081C1771.62 69.4132 1756.89 74.8396 1742.95 81.6703C1703.77 100.886 1674.73 132.526 1658.97 173.169C1650.4 195.115 1646.66 217.384 1643.04 238.919L1643 239.139C1641.39 248.735 1640.88 260.671 1640.35 273.307C1638.7 312.207 1636.66 360.617 1602.53 392.111C1594.16 399.891 1583.96 406.345 1572.23 411.294C1559.58 416.63 1544.72 420.396 1528.04 422.494C1518.11 423.74 1507.88 424.365 1497.27 424.365Z" fill="#FFE492"/>
<path d="M122.88 429.756C101.423 429.756 78.0578 427.244 51.6879 422.115C25.4865 417.019 -0.425568 409.983 -24.5275 403.142C-28.8914 401.896 -33.2222 400.652 -37.5238 399.417C-58.9363 393.268 -79.1617 387.461 -98.0644 382.938C-173.437 364.906 -245.281 348.7 -314.762 333.031L-326.274 330.433L-325.696 329.506L-314.183 332.104C-244.699 347.778 -172.843 363.984 -97.4562 382.02C-78.5022 386.554 -58.2512 392.368 -36.813 398.525C-32.515 399.76 -28.1842 401.004 -23.824 402.248C25.6513 416.292 78.2154 429.903 129.197 428.69C191.866 427.123 229.422 397.792 255.136 372.417C261.724 365.928 268.07 359.46 272.863 354.551C275.508 351.846 278.135 349.142 280.755 346.446C302.483 324.091 323.005 302.976 349.994 283.067C385.62 256.791 431.262 230.08 478.521 207.858C522.365 187.24 566.608 170.95 610.026 159.441C659.828 146.24 708.471 139.389 754.605 139.079C824.024 138.458 888.499 152.806 946.215 181.721C978.209 197.769 1006.89 215.129 1030.74 229.994C1043.71 238.084 1056.69 246.377 1069.24 254.396C1113.66 282.787 1159.59 312.142 1211.1 335.919C1234.11 346.543 1258.27 356.836 1282.88 366.511C1313.35 378.458 1344.29 389.425 1374.85 399.107C1422.61 414.239 1482.05 433.071 1541.77 426.388C1574.64 422.709 1598.84 412.847 1615.74 396.238C1649.18 363.546 1646.92 312.637 1645.1 271.732C1644.57 259.636 1644.06 248.208 1644.67 239.009C1646.04 218.27 1648.11 194.167 1655.28 170.56C1661.33 150.557 1670.45 132.459 1682.4 116.772C1695.92 99.0273 1713.25 84.1506 1733.89 72.5539C1747.57 64.869 1762.9 58.3464 1779.45 53.1644C1803.06 45.7458 1829.57 41.0812 1858.22 39.3025C1885.06 37.6361 1913.35 38.5122 1942.32 41.9045C1966.74 44.7662 1990.82 49.4727 2013.88 55.8963C2037.08 62.3594 2058.71 70.412 2078.17 79.8293C2100.6 90.6732 2121.22 103.478 2139.47 117.891C2156.75 131.546 2172.07 146.775 2185 163.153C2209.19 193.793 2225.11 228.72 2231.03 264.151L2229.39 264.25C2216.67 188.164 2161.18 121.228 2077.13 80.602C2038.64 61.9742 1990.66 48.5768 1942 42.8775C1881.84 35.831 1825.9 39.6921 1780.21 54.0427C1763.79 59.1829 1748.58 65.6548 1735.01 73.2781C1696.12 95.1287 1669.83 127.918 1656.9 170.738C1649.75 194.282 1647.68 218.343 1646.31 239.049C1645.71 248.215 1646.21 259.625 1646.75 271.706C1647.64 291.885 1648.66 314.76 1645.26 336.872C1641.31 362.531 1632.12 382.119 1617.15 396.755C1609 404.764 1598.88 411.357 1587.07 416.35C1574.32 421.743 1559.18 425.448 1542.08 427.361C1533.45 428.327 1524.83 428.765 1516.26 428.765C1464.93 428.765 1415.2 413.008 1374.08 399.98C1343.48 390.283 1312.49 379.301 1281.99 367.337C1257.33 357.648 1233.14 347.34 1210.1 336.7C1158.48 312.875 1112.5 283.489 1068.04 255.072C1055.49 247.055 1042.52 238.765 1029.56 230.679C1005.74 215.831 977.099 198.495 945.163 182.478C887.759 153.718 823.661 139.453 754.631 140.065C646.223 140.796 545.199 177.754 479.539 208.633C432.376 230.811 386.825 257.465 351.277 283.688C324.368 303.537 303.875 324.619 282.181 346.939C279.561 349.636 276.93 352.339 274.285 355.046C269.488 359.958 263.139 366.43 256.547 372.926C245.753 383.578 228.807 399.084 206.361 410.708C195.46 416.352 183.86 420.788 171.882 423.894C158.527 427.356 144.186 429.302 129.266 429.674C127.152 429.729 125.023 429.756 122.88 429.756Z" fill="#FFE492"/>
<path d="M129.769 460.404C108.287 460.404 84.9689 457.698 58.7381 452.177C31.5804 446.463 4.73044 438.428 -17.9499 431.319C-24.9189 429.131 -31.8731 426.912 -38.6003 424.766C-57.4041 418.767 -75.1673 413.099 -91.9155 408.472C-152.06 391.852 -211.813 375.625 -269.602 359.932C-288.717 354.741 -308.481 349.374 -327.637 344.161L-326.919 343.208C-307.763 348.421 -287.999 353.788 -268.884 358.979C-211.095 374.672 -151.335 390.901 -91.1864 407.523C-74.3941 412.163 -56.609 417.836 -37.7832 423.844C-31.0598 425.99 -24.1054 428.207 -17.1438 430.395C29.8949 445.131 84.4559 460.73 136.701 459.261C200.847 457.417 236.876 425.389 261.102 397.694C267.313 390.599 273.318 383.475 277.854 378.062C280.184 375.284 282.5 372.508 284.812 369.739C305.594 344.831 325.222 321.305 351.757 298.712C386.269 269.329 431.875 238.917 480.167 213.08C547.42 177.253 651.364 133.552 764.634 128.812C836.669 125.717 902.969 139 961.685 168.296C988.066 181.464 1014.15 196.653 1046.28 217.551C1062.52 228.111 1078.63 239.056 1094.21 249.638C1134.74 277.17 1176.65 305.64 1223.88 329.404C1246.75 340.919 1270.74 352.117 1295.17 362.688C1324.76 375.476 1355.68 387.64 1387.09 398.845C1435.34 415.952 1495.38 437.246 1555.82 431.218C1588.95 427.982 1613.99 417.779 1630.25 400.895C1663.22 366.723 1656.15 310.818 1650.98 269.998C1649.53 258.542 1648.16 247.723 1647.89 238.994C1647.29 219.596 1647.34 194.018 1653.12 168.186C1663.09 123.421 1687.55 88.4286 1725.81 64.1851C1739.22 55.6439 1754.61 48.2231 1771.52 42.1276C1795.59 33.4455 1822.74 27.6053 1852.23 24.7721C1880.02 22.1041 1909.26 22.1459 1939.14 24.8976C1964.36 27.2707 1989.16 31.5721 2012.85 37.6787C2036.78 43.8468 2058.96 51.7056 2078.8 61.0372C2101.73 71.8194 2122.68 84.6687 2141.06 99.2306C2158.49 113.031 2173.75 128.475 2186.44 145.14C2210.26 176.425 2224.95 212.056 2228.92 248.18L2227.18 248.249C2218.62 170.427 2164.15 102.491 2077.73 61.8627C2038.55 43.4308 1989.23 30.6696 1938.88 25.9323C1876.81 20.2198 1819.25 26.1304 1772.42 43.0257C1755.64 49.0706 1740.39 56.4319 1727.08 64.9049C1689.07 88.9877 1664.77 123.782 1654.85 168.327C1649.09 194.089 1649.04 219.616 1649.63 238.977C1649.91 247.674 1651.27 258.481 1652.72 269.921C1655.39 291.021 1658.42 314.939 1656.69 338.288C1654.67 365.477 1646.52 386.128 1631.76 401.421C1623.82 409.669 1613.78 416.405 1601.91 421.442C1589.05 426.904 1573.64 430.54 1556.11 432.253C1528.92 434.963 1499.66 432.528 1466.65 424.808C1437.96 418.096 1410.47 408.348 1386.21 399.75C1354.76 388.53 1323.79 376.347 1294.16 363.542C1269.69 352.956 1245.67 341.742 1222.76 330.212C1175.44 306.4 1133.48 277.899 1092.9 250.338C1077.33 239.758 1061.23 228.82 1045.01 218.269C1012.93 197.409 986.894 182.248 960.575 169.11C902.207 139.982 836.328 126.778 764.751 129.854C651.969 134.575 548.369 178.142 481.317 213.861C433.121 239.646 387.61 269.994 353.172 299.316C326.71 321.844 307.111 345.337 286.362 370.208C284.05 372.979 281.734 375.755 279.404 378.533C274.864 383.951 268.855 391.081 262.637 398.183C238.198 426.124 201.807 458.438 136.778 460.307C134.466 460.371 132.125 460.404 129.769 460.404Z" fill="#FFE492"/>
<path d="M136.796 491.053C78.0986 491.053 16.51 469.394 -38.0876 450.191C-54.8651 444.292 -70.712 438.718 -85.7711 434.005L-329 357.889L-328.154 356.913L-84.9248 433.03C-69.8253 437.754 -53.9601 443.334 -37.1606 449.242C19.5475 469.187 83.8254 491.792 144.205 489.833C209.765 487.709 244.302 452.985 267.067 422.974C274.512 413.158 281.701 403.17 288.655 393.511C307.675 367.095 327.34 339.778 353.512 314.355C374.294 294.168 400.111 272.998 428.17 253.135C458.952 231.344 491.91 211.351 526.121 193.714C563.842 174.27 602.197 158.184 640.116 145.908C682.058 132.33 723.377 123.465 762.934 119.557C842.176 111.732 914.247 123.608 977.14 154.86C1029.41 180.83 1073.83 212.943 1116.79 244C1154.19 271.032 1192.85 298.983 1236.64 322.876C1287.21 350.472 1341.95 375.94 1399.33 398.567C1447.68 417.633 1507.85 441.364 1569.86 436.03C1622.24 431.526 1652.52 410.472 1662.43 371.663C1670.87 338.651 1662.84 299.491 1656.4 268.027C1654.2 257.305 1652.13 247.176 1651.11 238.963C1645.49 193.686 1649.07 156.309 1662.06 124.7C1670.16 104.978 1682.12 87.3979 1697.6 72.4485C1714.89 55.7491 1737.09 41.8278 1763.59 31.072C1786.5 21.7669 1812.33 15.0087 1840.36 10.9847C1867.04 7.1543 1895.12 5.87092 1923.84 7.16972C1980.32 9.72328 2035.57 22.1741 2079.41 42.2262C2102.84 52.9446 2124.12 65.8401 2142.65 80.5517C2160.21 94.495 2175.42 110.158 2187.86 127.108C2211.3 159.039 2224.76 195.376 2226.79 232.189L2224.96 232.227C2220.64 153.832 2165.81 83.1317 2078.3 43.1045C1985.36 0.596484 1853.43 -4.08138 1764.6 31.9855C1676.61 67.7134 1640.08 135.389 1652.93 238.882C1653.94 247.068 1656.02 257.184 1658.21 267.893C1664.67 299.425 1672.71 338.669 1664.24 371.83C1659.62 389.892 1650.35 404.408 1636.67 414.976C1628.97 420.918 1619.7 425.774 1609.1 429.406C1597.82 433.272 1584.7 435.867 1570.12 437.122C1564.16 437.635 1558.09 437.892 1551.93 437.892C1529.45 437.892 1505.52 434.478 1479.29 427.561C1449.74 419.769 1421.23 408.524 1398.32 399.49C1340.86 376.829 1286.05 351.329 1235.4 323.693C1191.51 299.749 1152.81 271.765 1115.37 244.704C1072.47 213.687 1028.1 181.613 975.964 155.71C913.492 124.671 841.915 112.872 763.22 120.645C604.032 136.367 440.053 232.381 355.058 314.936C328.956 340.289 309.317 367.568 290.322 393.949C283.364 403.613 276.172 413.607 268.719 423.432C253.605 443.356 238.678 457.623 221.743 468.326C211.172 475.005 199.704 480.27 187.657 483.975C174.261 488.094 159.671 490.436 144.289 490.936C141.805 491.013 139.302 491.053 136.796 491.053Z" fill="#FFE492"/>
</g>
</svg>
